<svg xmlns="http://www.w3.org/2000/svg" xmlns:xlink="http://www.w3.org/1999/xlink" width="500" zoomAndPan="magnify" viewBox="0 0 375 374.999991" height="500" preserveAspectRatio="xMidYMid meet" version="1.0"><defs><g/><clipPath id="a42484dd84"><path d="M 92.292969 92 L 282.699219 92 L 282.699219 204.488281 L 92.292969 204.488281 Z M 92.292969 92 " clip-rule="nonzero"/></clipPath><clipPath id="b6784358a2"><path d="M 172.613281 76.96875 L 202.613281 76.96875 L 202.613281 106.96875 L 172.613281 106.96875 Z M 172.613281 76.96875 " clip-rule="nonzero"/></clipPath></defs><g clip-path="url(#a42484dd84)"><path fill="#061bb0" d="M 187.496094 196.214844 C 182.230469 196.214844 177.296875 193.878906 173.964844 189.808594 L 101.441406 101.273438 C 101.304688 101.105469 101.289062 100.972656 101.378906 100.78125 C 101.472656 100.589844 101.585938 100.515625 101.796875 100.515625 L 145.820312 100.515625 C 145.964844 100.515625 146.085938 100.578125 146.179688 100.6875 L 180.558594 142.65625 C 180.921875 143.101562 181.328125 143.507812 181.765625 143.875 C 181.785156 143.894531 181.804688 143.914062 181.824219 143.929688 L 181.953125 144.054688 C 182.019531 144.117188 182.085938 144.179688 182.15625 144.242188 C 182.210938 144.296875 182.265625 144.347656 182.320312 144.398438 L 182.449219 144.515625 C 182.519531 144.582031 182.585938 144.648438 182.660156 144.714844 C 182.710938 144.765625 182.765625 144.8125 182.820312 144.863281 L 182.949219 144.980469 C 183.023438 145.046875 183.09375 145.113281 183.164062 145.175781 C 183.214844 145.222656 183.265625 145.265625 183.316406 145.3125 L 183.453125 145.433594 C 183.527344 145.5 183.601562 145.566406 183.675781 145.632812 C 183.722656 145.675781 183.773438 145.71875 183.824219 145.761719 L 183.957031 145.878906 C 184.035156 145.945312 184.113281 146.011719 184.191406 146.078125 C 184.238281 146.121094 184.285156 146.164062 184.335938 146.203125 L 184.460938 146.3125 C 184.542969 146.382812 184.625 146.453125 184.707031 146.519531 L 184.964844 146.738281 C 185.054688 146.8125 185.140625 146.882812 185.226562 146.957031 C 185.269531 146.992188 185.316406 147.027344 185.359375 147.0625 L 185.472656 147.15625 C 185.566406 147.230469 185.65625 147.304688 185.75 147.378906 L 186.007812 147.585938 C 186.097656 147.65625 186.1875 147.726562 186.277344 147.796875 L 186.515625 147.988281 C 186.613281 148.058594 186.707031 148.136719 186.804688 148.210938 L 187.03125 148.382812 C 187.132812 148.460938 187.238281 148.539062 187.335938 148.613281 L 187.5625 148.78125 C 187.667969 148.859375 187.769531 148.933594 187.875 149.011719 L 188.082031 149.164062 C 188.191406 149.242188 188.300781 149.320312 188.414062 149.402344 L 188.621094 149.546875 C 188.730469 149.625 188.84375 149.703125 188.953125 149.78125 L 189.121094 149.898438 C 189.246094 149.980469 189.371094 150.070312 189.496094 150.152344 L 189.667969 150.269531 C 189.792969 150.355469 189.917969 150.4375 190.046875 150.523438 L 190.203125 150.625 C 190.335938 150.710938 190.464844 150.796875 190.59375 150.878906 L 190.753906 150.980469 C 190.886719 151.066406 191.015625 151.148438 191.148438 151.230469 L 191.289062 151.320312 C 191.429688 151.40625 191.566406 151.488281 191.703125 151.574219 L 191.839844 151.65625 C 191.980469 151.742188 192.121094 151.828125 192.261719 151.910156 L 192.394531 151.992188 C 192.535156 152.074219 192.675781 152.15625 192.820312 152.238281 L 192.957031 152.316406 C 193.097656 152.398438 193.238281 152.476562 193.382812 152.558594 L 193.511719 152.628906 C 193.65625 152.710938 193.800781 152.792969 193.949219 152.871094 L 194.066406 152.933594 C 194.21875 153.019531 194.367188 153.097656 194.515625 153.175781 L 194.625 153.234375 C 194.78125 153.316406 194.933594 153.394531 195.082031 153.472656 L 195.195312 153.527344 C 195.351562 153.609375 195.503906 153.6875 195.65625 153.761719 L 195.761719 153.8125 C 195.917969 153.890625 196.074219 153.96875 196.230469 154.042969 L 196.347656 154.097656 C 196.5 154.171875 196.652344 154.246094 196.808594 154.316406 L 196.914062 154.363281 C 197.070312 154.4375 197.226562 154.507812 197.386719 154.578125 L 197.484375 154.625 C 197.648438 154.695312 197.804688 154.769531 197.964844 154.839844 L 198.066406 154.882812 C 198.222656 154.949219 198.386719 155.019531 198.546875 155.085938 L 198.640625 155.128906 C 198.804688 155.195312 198.96875 155.261719 199.132812 155.328125 L 199.222656 155.367188 C 199.386719 155.433594 199.550781 155.496094 199.71875 155.5625 L 199.800781 155.59375 C 199.972656 155.660156 200.140625 155.726562 200.304688 155.785156 L 200.390625 155.816406 C 200.558594 155.878906 200.726562 155.945312 200.894531 156.003906 L 200.984375 156.035156 C 201.148438 156.09375 201.316406 156.15625 201.488281 156.210938 L 201.574219 156.242188 C 201.746094 156.300781 201.914062 156.355469 202.082031 156.414062 L 202.160156 156.441406 C 202.332031 156.496094 202.503906 156.550781 202.675781 156.605469 L 202.746094 156.628906 C 202.921875 156.683594 203.097656 156.738281 203.269531 156.789062 L 203.34375 156.808594 C 203.515625 156.863281 203.691406 156.914062 203.871094 156.964844 L 203.945312 156.988281 C 204.117188 157.035156 204.292969 157.085938 204.46875 157.132812 L 204.546875 157.15625 C 204.71875 157.199219 204.894531 157.246094 205.070312 157.292969 L 205.148438 157.3125 C 205.320312 157.355469 205.496094 157.402344 205.671875 157.445312 L 205.730469 157.457031 C 205.914062 157.503906 206.09375 157.542969 206.273438 157.585938 L 206.351562 157.605469 C 206.527344 157.644531 206.703125 157.683594 206.878906 157.71875 L 206.9375 157.734375 C 207.125 157.773438 207.304688 157.8125 207.484375 157.847656 L 207.539062 157.855469 C 207.730469 157.894531 207.910156 157.929688 208.089844 157.964844 L 208.144531 157.972656 C 208.332031 158.007812 208.515625 158.042969 208.699219 158.074219 L 208.753906 158.082031 C 208.941406 158.113281 209.125 158.144531 209.304688 158.171875 L 209.363281 158.183594 C 209.546875 158.210938 209.730469 158.238281 209.914062 158.265625 L 209.972656 158.273438 C 210.15625 158.296875 210.339844 158.324219 210.527344 158.347656 L 210.582031 158.355469 C 210.765625 158.378906 210.953125 158.402344 211.136719 158.421875 L 211.164062 158.425781 C 211.363281 158.449219 211.554688 158.46875 211.75 158.488281 L 211.785156 158.492188 C 211.980469 158.511719 212.171875 158.53125 212.359375 158.546875 L 212.425781 158.550781 C 212.613281 158.566406 212.796875 158.582031 212.976562 158.59375 L 213.023438 158.597656 C 213.214844 158.609375 213.398438 158.625 213.585938 158.632812 L 213.640625 158.636719 C 213.828125 158.648438 214.015625 158.65625 214.199219 158.664062 L 214.257812 158.667969 C 214.449219 158.675781 214.632812 158.679688 214.816406 158.6875 L 214.886719 158.6875 C 215.070312 158.695312 215.25 158.699219 215.429688 158.699219 L 215.523438 158.699219 C 215.695312 158.703125 215.871094 158.703125 216.042969 158.707031 L 216.136719 158.703125 C 216.53125 158.703125 216.914062 158.699219 217.273438 158.6875 C 217.320312 158.6875 217.367188 158.683594 217.410156 158.683594 L 217.546875 158.679688 C 217.660156 158.675781 217.773438 158.671875 217.890625 158.667969 C 218.09375 158.65625 218.300781 158.648438 218.507812 158.636719 C 218.902344 158.613281 219.300781 158.582031 219.699219 158.550781 C 222.460938 158.316406 225.1875 157.8125 227.863281 157.042969 L 201.023438 189.808594 C 197.6875 193.878906 192.757812 196.214844 187.496094 196.214844 Z M 194.121094 143.011719 C 194.226562 142.898438 194.332031 142.777344 194.429688 142.65625 L 228.808594 100.6875 C 228.902344 100.574219 229.023438 100.515625 229.167969 100.515625 L 273.191406 100.515625 C 273.40625 100.515625 273.515625 100.589844 273.609375 100.78125 C 273.699219 100.972656 273.683594 101.109375 273.546875 101.273438 L 246.425781 134.378906 L 246.386719 134.429688 C 246.289062 134.546875 246.191406 134.664062 246.09375 134.78125 L 246.003906 134.890625 C 245.949219 134.960938 245.886719 135.027344 245.828125 135.097656 L 245.394531 135.601562 C 245.34375 135.664062 245.292969 135.722656 245.238281 135.78125 L 245.117188 135.917969 C 245.03125 136.019531 244.941406 136.121094 244.851562 136.222656 L 244.816406 136.257812 C 237.605469 144.300781 228.882812 149.058594 219.597656 150.019531 C 219.425781 150.035156 219.257812 150.050781 219.085938 150.066406 L 219 150.074219 C 218.679688 150.101562 218.347656 150.125 218.015625 150.144531 C 217.765625 150.160156 217.5 150.171875 217.207031 150.179688 L 217.105469 150.183594 C 216.859375 150.191406 216.597656 150.195312 216.328125 150.199219 L 216.210938 150.199219 C 215.9375 150.199219 215.675781 150.199219 215.425781 150.195312 L 215.339844 150.195312 C 214.777344 150.179688 214.214844 150.15625 213.664062 150.117188 L 213.628906 150.113281 C 213.363281 150.09375 213.097656 150.074219 212.808594 150.046875 L 212.730469 150.039062 C 212.453125 150.011719 212.183594 149.980469 211.917969 149.949219 L 211.851562 149.941406 C 211.003906 149.835938 210.148438 149.703125 209.304688 149.535156 L 209.234375 149.523438 C 208.972656 149.472656 208.699219 149.414062 208.429688 149.351562 L 208.355469 149.335938 C 208.070312 149.273438 207.792969 149.207031 207.53125 149.140625 L 207.507812 149.136719 C 206.953125 149 206.390625 148.84375 205.832031 148.675781 L 205.765625 148.660156 C 205.507812 148.582031 205.242188 148.496094 204.96875 148.410156 L 204.882812 148.382812 C 204.609375 148.292969 204.339844 148.199219 204.085938 148.109375 L 204.03125 148.089844 C 203.484375 147.898438 202.933594 147.691406 202.394531 147.472656 L 202.328125 147.445312 C 202.082031 147.347656 201.820312 147.238281 201.550781 147.121094 L 201.449219 147.078125 C 201.1875 146.964844 200.929688 146.851562 200.683594 146.738281 L 200.597656 146.699219 C 200.304688 146.5625 200.050781 146.441406 199.804688 146.324219 L 199.792969 146.316406 C 199.542969 146.195312 199.285156 146.070312 199.007812 145.925781 L 198.941406 145.890625 C 198.699219 145.765625 198.453125 145.640625 198.1875 145.496094 L 198.070312 145.429688 C 197.824219 145.296875 197.578125 145.160156 197.335938 145.023438 L 197.222656 144.957031 C 196.953125 144.804688 196.710938 144.660156 196.480469 144.523438 L 196.417969 144.488281 C 196.175781 144.339844 195.925781 144.1875 195.679688 144.035156 L 195.621094 143.996094 C 195.394531 143.855469 195.15625 143.703125 194.890625 143.527344 L 194.769531 143.449219 C 194.554688 143.308594 194.339844 143.160156 194.121094 143.011719 Z M 273.191406 92.011719 L 229.167969 92.011719 C 226.46875 92.011719 223.9375 93.210938 222.230469 95.300781 L 187.851562 137.265625 C 187.703125 137.449219 187.398438 137.488281 187.214844 137.34375 L 187.207031 137.335938 C 187.183594 137.320312 187.160156 137.296875 187.140625 137.269531 L 152.757812 95.296875 C 151.046875 93.210938 148.519531 92.011719 145.820312 92.011719 L 101.796875 92.011719 C 98.296875 92.011719 95.195312 93.976562 93.695312 97.140625 C 92.195312 100.304688 92.644531 103.953125 94.863281 106.660156 L 167.386719 195.195312 C 172.339844 201.246094 179.671875 204.71875 187.496094 204.71875 C 195.316406 204.71875 202.644531 201.246094 207.601562 195.195312 L 252.929688 139.859375 C 252.964844 139.824219 252.996094 139.785156 253.023438 139.75 L 280.128906 106.660156 C 282.347656 103.953125 282.792969 100.304688 281.292969 97.140625 C 279.796875 93.976562 276.691406 92.011719 273.191406 92.011719 " fill-opacity="1" fill-rule="nonzero"/></g><g clip-path="url(#b6784358a2)"><path fill="#061bb0" d="M 187.578125 107.003906 C 179.324219 107.003906 172.625 100.90625 172.625 93.394531 C 172.625 89.65625 174.292969 86.273438 176.980469 83.8125 L 176.992188 83.824219 C 177.535156 83.140625 178.414062 82.691406 179.410156 82.691406 C 181.0625 82.691406 182.402344 83.910156 182.402344 85.414062 C 182.402344 86.335938 181.898438 87.148438 181.125 87.640625 L 181.136719 87.648438 C 179.523438 89.128906 178.511719 91.152344 178.511719 93.394531 C 178.511719 97.925781 182.570312 101.601562 187.570312 101.601562 C 192.566406 101.601562 196.625 97.925781 196.625 93.394531 C 196.625 91.347656 195.777344 89.488281 194.402344 88.054688 C 193.585938 87.566406 193.039062 86.730469 193.039062 85.777344 C 193.039062 84.273438 194.382812 83.054688 196.03125 83.054688 C 196.839844 83.054688 197.566406 83.351562 198.105469 83.824219 L 198.148438 83.785156 C 200.851562 86.246094 202.527344 89.640625 202.527344 93.394531 C 202.527344 100.90625 195.832031 107.003906 187.578125 107.003906 Z M 187.574219 93.488281 C 185.917969 93.488281 184.585938 92.253906 184.585938 90.71875 L 184.585938 79.742188 C 184.585938 78.207031 185.917969 76.96875 187.574219 76.96875 C 189.230469 76.96875 190.566406 78.207031 190.566406 79.742188 L 190.566406 90.71875 C 190.566406 92.253906 189.230469 93.488281 187.574219 93.488281 Z M 187.574219 93.488281 " fill-opacity="1" fill-rule="evenodd"/></g><g fill="#061bb0" fill-opacity="1"><g transform="translate(68.242083, 254.195448)"><g><path d="M 3.890625 -33.53125 C 4.390625 -33.695312 4.890625 -33.800781 5.390625 -33.84375 C 5.890625 -33.882812 6.378906 -33.84375 6.859375 -33.71875 C 7.335938 -33.59375 7.765625 -33.363281 8.140625 -33.03125 C 8.523438 -32.695312 8.820312 -32.21875 9.03125 -31.59375 L 16.921875 -8.34375 L 16.984375 -8.34375 L 24.890625 -31.59375 C 25.097656 -32.21875 25.378906 -32.695312 25.734375 -33.03125 C 26.085938 -33.363281 26.492188 -33.59375 26.953125 -33.71875 C 27.410156 -33.84375 27.890625 -33.882812 28.390625 -33.84375 C 28.898438 -33.800781 29.40625 -33.695312 29.90625 -33.53125 C 30.863281 -33.195312 31.582031 -32.625 32.0625 -31.8125 C 32.539062 -31 32.550781 -30.03125 32.09375 -28.90625 L 22.625 -4.078125 C 22 -2.441406 21.175781 -1.332031 20.15625 -0.75 C 19.132812 -0.164062 18.015625 0.125 16.796875 0.125 C 15.585938 0.125 14.46875 -0.164062 13.4375 -0.75 C 12.414062 -1.332031 11.59375 -2.441406 10.96875 -4.078125 L 1.5 -28.90625 C 1.039062 -30.03125 1.082031 -31 1.625 -31.8125 C 2.164062 -32.625 2.921875 -33.195312 3.890625 -33.53125 Z M 3.890625 -33.53125 "/></g></g></g><g fill="#061bb0" fill-opacity="1"><g transform="translate(94.191714, 254.195448)"><g><path d="M 16.109375 -14.484375 C 14.015625 -14.484375 12.5625 -14.082031 11.75 -13.28125 C 10.9375 -12.488281 10.53125 -11.425781 10.53125 -10.09375 L 10.53125 -9.96875 C 10.53125 -7.539062 12.097656 -6.328125 15.234375 -6.328125 C 17.703125 -6.328125 19.644531 -6.742188 21.0625 -7.578125 C 22.0625 -8.171875 22.78125 -8.863281 23.21875 -9.65625 C 23.664062 -10.445312 23.890625 -11.507812 23.890625 -12.84375 L 23.890625 -14.484375 Z M 17.734375 -34.296875 C 19.742188 -34.296875 21.601562 -34.039062 23.3125 -33.53125 C 25.03125 -33.03125 26.503906 -32.3125 27.734375 -31.375 C 28.972656 -30.4375 29.9375 -29.285156 30.625 -27.921875 C 31.3125 -26.566406 31.65625 -25.007812 31.65625 -23.25 L 31.65625 -2.890625 C 31.65625 -1.835938 31.289062 -1.070312 30.5625 -0.59375 C 29.832031 -0.113281 29.003906 0.125 28.078125 0.125 C 27.160156 0.125 26.335938 -0.113281 25.609375 -0.59375 C 24.878906 -1.070312 24.515625 -1.835938 24.515625 -2.890625 L 24.515625 -4.515625 L 24.453125 -4.515625 C 24.117188 -3.804688 23.632812 -3.175781 23 -2.625 C 22.375 -2.082031 21.625 -1.582031 20.75 -1.125 C 19.914062 -0.707031 18.953125 -0.375 17.859375 -0.125 C 16.773438 0.125 15.691406 0.25 14.609375 0.25 C 10.847656 0.25 7.953125 -0.601562 5.921875 -2.3125 C 3.898438 -4.03125 2.890625 -6.457031 2.890625 -9.59375 L 2.890625 -10.59375 C 2.890625 -12.007812 3.109375 -13.320312 3.546875 -14.53125 C 3.984375 -15.75 4.710938 -16.804688 5.734375 -17.703125 C 6.753906 -18.609375 8.085938 -19.3125 9.734375 -19.8125 C 11.390625 -20.3125 13.453125 -20.5625 15.921875 -20.5625 L 23.828125 -20.5625 L 23.828125 -21.4375 C 23.828125 -23.570312 23.332031 -25.109375 22.34375 -26.046875 C 21.363281 -26.984375 19.804688 -27.453125 17.671875 -27.453125 C 14.835938 -27.453125 12.164062 -26.703125 9.65625 -25.203125 C 8.820312 -24.703125 7.992188 -24.566406 7.171875 -24.796875 C 6.359375 -25.023438 5.703125 -25.554688 5.203125 -26.390625 C 4.742188 -27.179688 4.566406 -28.003906 4.671875 -28.859375 C 4.773438 -29.722656 5.242188 -30.425781 6.078125 -30.96875 C 7.585938 -31.96875 9.351562 -32.769531 11.375 -33.375 C 13.40625 -33.988281 15.523438 -34.296875 17.734375 -34.296875 Z M 17.734375 -34.296875 "/></g></g></g><g fill="#061bb0" fill-opacity="1"><g transform="translate(122.39796, 254.195448)"><g><path d="M 8.65625 -46.765625 C 9.695312 -46.765625 10.613281 -46.492188 11.40625 -45.953125 C 12.195312 -45.410156 12.59375 -44.550781 12.59375 -43.375 L 12.59375 -3.265625 C 12.59375 -2.085938 12.195312 -1.226562 11.40625 -0.6875 C 10.613281 -0.144531 9.695312 0.125 8.65625 0.125 C 7.601562 0.125 6.679688 -0.144531 5.890625 -0.6875 C 5.097656 -1.226562 4.703125 -2.085938 4.703125 -3.265625 L 4.703125 -43.375 C 4.703125 -44.550781 5.097656 -45.410156 5.890625 -45.953125 C 6.679688 -46.492188 7.601562 -46.765625 8.65625 -46.765625 Z M 8.65625 -46.765625 "/></g></g></g><g fill="#061bb0" fill-opacity="1"><g transform="translate(132.049866, 254.195448)"><g><path d="M 8.65625 -46.765625 C 9.695312 -46.765625 10.613281 -46.492188 11.40625 -45.953125 C 12.195312 -45.410156 12.59375 -44.550781 12.59375 -43.375 L 12.59375 -3.265625 C 12.59375 -2.085938 12.195312 -1.226562 11.40625 -0.6875 C 10.613281 -0.144531 9.695312 0.125 8.65625 0.125 C 7.601562 0.125 6.679688 -0.144531 5.890625 -0.6875 C 5.097656 -1.226562 4.703125 -2.085938 4.703125 -3.265625 L 4.703125 -43.375 C 4.703125 -44.550781 5.097656 -45.410156 5.890625 -45.953125 C 6.679688 -46.492188 7.601562 -46.765625 8.65625 -46.765625 Z M 8.65625 -46.765625 "/></g></g></g><g fill="#061bb0" fill-opacity="1"><g transform="translate(141.701772, 254.195448)"><g><path d="M 18.5 -27.765625 C 15.863281 -27.765625 13.882812 -27.078125 12.5625 -25.703125 C 11.25 -24.328125 10.59375 -22.570312 10.59375 -20.4375 L 10.59375 -20 L 26.140625 -20 L 26.140625 -20.625 C 26.140625 -22.675781 25.550781 -24.378906 24.375 -25.734375 C 23.207031 -27.085938 21.25 -27.765625 18.5 -27.765625 Z M 18.625 -34.296875 C 20.875 -34.296875 22.914062 -33.957031 24.75 -33.28125 C 26.59375 -32.613281 28.179688 -31.648438 29.515625 -30.390625 C 30.859375 -29.140625 31.894531 -27.59375 32.625 -25.75 C 33.351562 -23.914062 33.71875 -21.8125 33.71875 -19.4375 L 33.71875 -19.3125 C 33.71875 -17.34375 33.332031 -15.984375 32.5625 -15.234375 C 31.789062 -14.484375 30.398438 -14.109375 28.390625 -14.109375 L 10.59375 -14.109375 L 10.59375 -13.984375 C 10.59375 -11.722656 11.289062 -9.878906 12.6875 -8.453125 C 14.09375 -7.035156 16.195312 -6.328125 19 -6.328125 C 20.75 -6.328125 22.28125 -6.460938 23.59375 -6.734375 C 24.914062 -7.003906 26.265625 -7.457031 27.640625 -8.09375 C 28.484375 -8.46875 29.300781 -8.515625 30.09375 -8.234375 C 30.882812 -7.960938 31.46875 -7.390625 31.84375 -6.515625 C 32.21875 -5.640625 32.300781 -4.796875 32.09375 -3.984375 C 31.882812 -3.171875 31.363281 -2.550781 30.53125 -2.125 C 28.9375 -1.332031 27.195312 -0.738281 25.3125 -0.34375 C 23.4375 0.0507812 21.226562 0.25 18.6875 0.25 C 13.664062 0.25 9.773438 -1.117188 7.015625 -3.859375 C 4.265625 -6.597656 2.890625 -10.703125 2.890625 -16.171875 L 2.890625 -17.796875 C 2.890625 -23.234375 4.285156 -27.34375 7.078125 -30.125 C 9.878906 -32.90625 13.726562 -34.296875 18.625 -34.296875 Z M 18.625 -34.296875 "/></g></g></g><g fill="#061bb0" fill-opacity="1"><g transform="translate(170.53484, 254.195448)"><g><path d="M 30.46875 -33.65625 C 31.425781 -33.363281 32.164062 -32.800781 32.6875 -31.96875 C 33.207031 -31.132812 33.257812 -30.175781 32.84375 -29.09375 L 17.171875 10.71875 C 16.753906 11.757812 16.085938 12.394531 15.171875 12.625 C 14.253906 12.851562 13.289062 12.757812 12.28125 12.34375 C 11.28125 11.925781 10.59375 11.34375 10.21875 10.59375 C 9.84375 9.84375 9.84375 8.988281 10.21875 8.03125 L 13.609375 -0.125 L 2.1875 -28.84375 C 1.726562 -29.96875 1.78125 -30.945312 2.34375 -31.78125 C 2.914062 -32.613281 3.679688 -33.195312 4.640625 -33.53125 C 5.140625 -33.695312 5.640625 -33.8125 6.140625 -33.875 C 6.640625 -33.945312 7.128906 -33.90625 7.609375 -33.75 C 8.097656 -33.601562 8.53125 -33.351562 8.90625 -33 C 9.28125 -32.644531 9.570312 -32.15625 9.78125 -31.53125 L 17.609375 -9.09375 L 17.671875 -9.09375 L 25.453125 -31.53125 C 25.867188 -32.738281 26.578125 -33.46875 27.578125 -33.71875 C 28.585938 -33.976562 29.550781 -33.957031 30.46875 -33.65625 Z M 30.46875 -33.65625 "/></g></g></g><g fill="#061bb0" fill-opacity="1"><g transform="translate(197.926203, 254.195448)"><g/></g></g><g fill="#061bb0" fill-opacity="1"><g transform="translate(205.948327, 254.195448)"><g><path d="M 8.65625 -46.765625 C 9.695312 -46.765625 10.613281 -46.492188 11.40625 -45.953125 C 12.195312 -45.410156 12.59375 -44.550781 12.59375 -43.375 L 12.59375 -3.265625 C 12.59375 -2.085938 12.195312 -1.226562 11.40625 -0.6875 C 10.613281 -0.144531 9.695312 0.125 8.65625 0.125 C 7.601562 0.125 6.679688 -0.144531 5.890625 -0.6875 C 5.097656 -1.226562 4.703125 -2.085938 4.703125 -3.265625 L 4.703125 -43.375 C 4.703125 -44.550781 5.097656 -45.410156 5.890625 -45.953125 C 6.679688 -46.492188 7.601562 -46.765625 8.65625 -46.765625 Z M 8.65625 -46.765625 "/></g></g></g><g fill="#061bb0" fill-opacity="1"><g transform="translate(215.600228, 254.195448)"><g><path d="M 16.109375 -14.484375 C 14.015625 -14.484375 12.5625 -14.082031 11.75 -13.28125 C 10.9375 -12.488281 10.53125 -11.425781 10.53125 -10.09375 L 10.53125 -9.96875 C 10.53125 -7.539062 12.097656 -6.328125 15.234375 -6.328125 C 17.703125 -6.328125 19.644531 -6.742188 21.0625 -7.578125 C 22.0625 -8.171875 22.78125 -8.863281 23.21875 -9.65625 C 23.664062 -10.445312 23.890625 -11.507812 23.890625 -12.84375 L 23.890625 -14.484375 Z M 17.734375 -34.296875 C 19.742188 -34.296875 21.601562 -34.039062 23.3125 -33.53125 C 25.03125 -33.03125 26.503906 -32.3125 27.734375 -31.375 C 28.972656 -30.4375 29.9375 -29.285156 30.625 -27.921875 C 31.3125 -26.566406 31.65625 -25.007812 31.65625 -23.25 L 31.65625 -2.890625 C 31.65625 -1.835938 31.289062 -1.070312 30.5625 -0.59375 C 29.832031 -0.113281 29.003906 0.125 28.078125 0.125 C 27.160156 0.125 26.335938 -0.113281 25.609375 -0.59375 C 24.878906 -1.070312 24.515625 -1.835938 24.515625 -2.890625 L 24.515625 -4.515625 L 24.453125 -4.515625 C 24.117188 -3.804688 23.632812 -3.175781 23 -2.625 C 22.375 -2.082031 21.625 -1.582031 20.75 -1.125 C 19.914062 -0.707031 18.953125 -0.375 17.859375 -0.125 C 16.773438 0.125 15.691406 0.25 14.609375 0.25 C 10.847656 0.25 7.953125 -0.601562 5.921875 -2.3125 C 3.898438 -4.03125 2.890625 -6.457031 2.890625 -9.59375 L 2.890625 -10.59375 C 2.890625 -12.007812 3.109375 -13.320312 3.546875 -14.53125 C 3.984375 -15.75 4.710938 -16.804688 5.734375 -17.703125 C 6.753906 -18.609375 8.085938 -19.3125 9.734375 -19.8125 C 11.390625 -20.3125 13.453125 -20.5625 15.921875 -20.5625 L 23.828125 -20.5625 L 23.828125 -21.4375 C 23.828125 -23.570312 23.332031 -25.109375 22.34375 -26.046875 C 21.363281 -26.984375 19.804688 -27.453125 17.671875 -27.453125 C 14.835938 -27.453125 12.164062 -26.703125 9.65625 -25.203125 C 8.820312 -24.703125 7.992188 -24.566406 7.171875 -24.796875 C 6.359375 -25.023438 5.703125 -25.554688 5.203125 -26.390625 C 4.742188 -27.179688 4.566406 -28.003906 4.671875 -28.859375 C 4.773438 -29.722656 5.242188 -30.425781 6.078125 -30.96875 C 7.585938 -31.96875 9.351562 -32.769531 11.375 -33.375 C 13.40625 -33.988281 15.523438 -34.296875 17.734375 -34.296875 Z M 17.734375 -34.296875 "/></g></g></g><g fill="#061bb0" fill-opacity="1"><g transform="translate(243.806479, 254.195448)"><g><path d="M 8.65625 -46.765625 C 9.695312 -46.765625 10.613281 -46.492188 11.40625 -45.953125 C 12.195312 -45.410156 12.59375 -44.570312 12.59375 -43.4375 L 12.59375 -30.15625 C 13.144531 -30.945312 13.828125 -31.613281 14.640625 -32.15625 C 15.453125 -32.695312 16.285156 -33.125 17.140625 -33.4375 C 18.003906 -33.75 18.863281 -33.96875 19.71875 -34.09375 C 20.570312 -34.226562 21.351562 -34.296875 22.0625 -34.296875 C 26.625 -34.296875 30.007812 -32.90625 32.21875 -30.125 C 34.4375 -27.34375 35.546875 -23.253906 35.546875 -17.859375 L 35.546875 -16.234375 C 35.546875 -13.515625 35.207031 -11.117188 34.53125 -9.046875 C 33.863281 -6.984375 32.925781 -5.257812 31.71875 -3.875 C 30.507812 -2.5 29.054688 -1.46875 27.359375 -0.78125 C 25.671875 -0.09375 23.78125 0.25 21.6875 0.25 C 19.382812 0.25 17.460938 -0.164062 15.921875 -1 C 14.378906 -1.832031 13.207031 -2.921875 12.40625 -4.265625 L 12.21875 -4.265625 L 12.21875 -3.078125 C 12.21875 -1.984375 11.832031 -1.175781 11.0625 -0.65625 C 10.289062 -0.132812 9.425781 0.125 8.46875 0.125 C 7.5 0.125 6.628906 -0.132812 5.859375 -0.65625 C 5.085938 -1.175781 4.703125 -1.984375 4.703125 -3.078125 L 4.703125 -43.4375 C 4.703125 -44.570312 5.109375 -45.410156 5.921875 -45.953125 C 6.734375 -46.492188 7.644531 -46.765625 8.65625 -46.765625 Z M 20.5 -27.515625 C 17.863281 -27.515625 15.863281 -26.75 14.5 -25.21875 C 13.144531 -23.695312 12.46875 -21.75 12.46875 -19.375 L 12.46875 -13.546875 C 12.46875 -12.660156 12.675781 -11.800781 13.09375 -10.96875 C 13.519531 -10.132812 14.085938 -9.378906 14.796875 -8.703125 C 15.503906 -8.035156 16.359375 -7.492188 17.359375 -7.078125 C 18.367188 -6.660156 19.476562 -6.453125 20.6875 -6.453125 C 25.363281 -6.453125 27.703125 -9.773438 27.703125 -16.421875 L 27.703125 -17.671875 C 27.703125 -20.929688 27.160156 -23.382812 26.078125 -25.03125 C 24.992188 -26.6875 23.132812 -27.515625 20.5 -27.515625 Z M 20.5 -27.515625 "/></g></g></g><g fill="#061bb0" fill-opacity="1"><g transform="translate(274.582752, 254.195448)"><g><path d="M 16.421875 -34.296875 C 20.554688 -34.296875 23.816406 -33.644531 26.203125 -32.34375 C 27.242188 -31.757812 27.890625 -31.070312 28.140625 -30.28125 C 28.390625 -29.488281 28.285156 -28.609375 27.828125 -27.640625 C 27.453125 -26.847656 26.910156 -26.316406 26.203125 -26.046875 C 25.492188 -25.773438 24.679688 -25.847656 23.765625 -26.265625 C 22.796875 -26.722656 21.738281 -27.078125 20.59375 -27.328125 C 19.445312 -27.578125 18.347656 -27.703125 17.296875 -27.703125 C 14.921875 -27.703125 13.269531 -27.410156 12.34375 -26.828125 C 11.425781 -26.242188 10.96875 -25.554688 10.96875 -24.765625 L 10.96875 -24.640625 C 10.96875 -24.140625 11.03125 -23.707031 11.15625 -23.34375 C 11.28125 -22.988281 11.5625 -22.675781 12 -22.40625 C 12.4375 -22.132812 13.070312 -21.882812 13.90625 -21.65625 C 14.75 -21.425781 15.898438 -21.164062 17.359375 -20.875 C 19.867188 -20.375 21.9375 -19.820312 23.5625 -19.21875 C 25.195312 -18.613281 26.492188 -17.890625 27.453125 -17.046875 C 28.421875 -16.210938 29.09375 -15.21875 29.46875 -14.0625 C 29.84375 -12.914062 30.03125 -11.550781 30.03125 -9.96875 L 30.03125 -9.71875 C 30.03125 -8.289062 29.703125 -6.972656 29.046875 -5.765625 C 28.398438 -4.554688 27.484375 -3.5 26.296875 -2.59375 C 25.109375 -1.695312 23.664062 -1 21.96875 -0.5 C 20.28125 0 18.390625 0.25 16.296875 0.25 C 13.828125 0.25 11.546875 0 9.453125 -0.5 C 7.367188 -1 5.535156 -1.6875 3.953125 -2.5625 C 3.078125 -3.03125 2.550781 -3.710938 2.375 -4.609375 C 2.207031 -5.503906 2.335938 -6.367188 2.765625 -7.203125 C 3.222656 -8.085938 3.847656 -8.675781 4.640625 -8.96875 C 5.429688 -9.257812 6.285156 -9.175781 7.203125 -8.71875 C 8.546875 -8 10 -7.429688 11.5625 -7.015625 C 13.132812 -6.597656 14.691406 -6.390625 16.234375 -6.390625 C 18.410156 -6.390625 19.914062 -6.703125 20.75 -7.328125 C 21.582031 -7.960938 22 -8.757812 22 -9.71875 L 22 -9.84375 C 22 -10.34375 21.9375 -10.78125 21.8125 -11.15625 C 21.6875 -11.53125 21.375 -11.863281 20.875 -12.15625 C 20.375 -12.445312 19.640625 -12.71875 18.671875 -12.96875 C 17.710938 -13.226562 16.421875 -13.523438 14.796875 -13.859375 C 12.578125 -14.273438 10.722656 -14.773438 9.234375 -15.359375 C 7.753906 -15.941406 6.554688 -16.660156 5.640625 -17.515625 C 4.722656 -18.378906 4.066406 -19.382812 3.671875 -20.53125 C 3.273438 -21.675781 3.078125 -23.003906 3.078125 -24.515625 L 3.078125 -24.765625 C 3.078125 -26.015625 3.347656 -27.210938 3.890625 -28.359375 C 4.429688 -29.515625 5.253906 -30.53125 6.359375 -31.40625 C 7.472656 -32.28125 8.863281 -32.976562 10.53125 -33.5 C 12.195312 -34.03125 14.160156 -34.296875 16.421875 -34.296875 Z M 16.421875 -34.296875 "/></g></g></g><g fill="#76b9f0" fill-opacity="1"><g transform="translate(74.082576, 288.325968)"><g><path d="M 4.796875 -5.671875 L 7.765625 -11.375 L 9.46875 -11.375 L 5.546875 -4.25 L 5.546875 0 L 4.046875 0 L 4.046875 -4.25 L 0.125 -11.375 L 1.84375 -11.375 Z M 4.796875 -5.671875 "/></g></g></g><g fill="#76b9f0" fill-opacity="1"><g transform="translate(85.945601, 288.325968)"><g><path d="M 10.078125 -5.328125 C 10.078125 -4.210938 9.890625 -3.238281 9.515625 -2.40625 C 9.140625 -1.570312 8.609375 -0.9375 7.921875 -0.5 C 7.234375 -0.0625 6.429688 0.15625 5.515625 0.15625 C 4.617188 0.15625 3.820312 -0.0625 3.125 -0.5 C 2.4375 -0.945312 1.898438 -1.578125 1.515625 -2.390625 C 1.128906 -3.203125 0.929688 -4.144531 0.921875 -5.21875 L 0.921875 -6.046875 C 0.921875 -7.140625 1.109375 -8.101562 1.484375 -8.9375 C 1.867188 -9.78125 2.410156 -10.421875 3.109375 -10.859375 C 3.804688 -11.304688 4.601562 -11.53125 5.5 -11.53125 C 6.40625 -11.53125 7.207031 -11.3125 7.90625 -10.875 C 8.601562 -10.4375 9.140625 -9.796875 9.515625 -8.953125 C 9.890625 -8.117188 10.078125 -7.148438 10.078125 -6.046875 Z M 8.578125 -6.0625 C 8.578125 -7.40625 8.304688 -8.4375 7.765625 -9.15625 C 7.222656 -9.882812 6.46875 -10.25 5.5 -10.25 C 4.550781 -10.25 3.800781 -9.882812 3.25 -9.15625 C 2.707031 -8.4375 2.429688 -7.4375 2.421875 -6.15625 L 2.421875 -5.328125 C 2.421875 -4.015625 2.691406 -2.984375 3.234375 -2.234375 C 3.785156 -1.492188 4.546875 -1.125 5.515625 -1.125 C 6.484375 -1.125 7.234375 -1.472656 7.765625 -2.171875 C 8.296875 -2.878906 8.566406 -3.894531 8.578125 -5.21875 Z M 8.578125 -6.0625 "/></g></g></g><g fill="#76b9f0" fill-opacity="1"><g transform="translate(99.198911, 288.325968)"><g><path d="M 9.328125 -11.375 L 9.328125 -3.640625 C 9.328125 -2.566406 8.988281 -1.6875 8.3125 -1 C 7.644531 -0.320312 6.738281 0.0546875 5.59375 0.140625 L 5.203125 0.15625 C 3.953125 0.15625 2.957031 -0.175781 2.21875 -0.84375 C 1.476562 -1.519531 1.101562 -2.445312 1.09375 -3.625 L 1.09375 -11.375 L 2.578125 -11.375 L 2.578125 -3.671875 C 2.578125 -2.847656 2.800781 -2.207031 3.25 -1.75 C 3.707031 -1.300781 4.359375 -1.078125 5.203125 -1.078125 C 6.046875 -1.078125 6.691406 -1.300781 7.140625 -1.75 C 7.597656 -2.207031 7.828125 -2.847656 7.828125 -3.671875 L 7.828125 -11.375 Z M 9.328125 -11.375 "/></g></g></g><g fill="#76b9f0" fill-opacity="1"><g transform="translate(111.827374, 288.325968)"><g><path d="M 5.5 -4.609375 L 2.828125 -4.609375 L 2.828125 0 L 1.3125 0 L 1.3125 -11.375 L 5.078125 -11.375 C 6.359375 -11.375 7.34375 -11.082031 8.03125 -10.5 C 8.726562 -9.914062 9.078125 -9.066406 9.078125 -7.953125 C 9.078125 -7.242188 8.882812 -6.625 8.5 -6.09375 C 8.113281 -5.570312 7.582031 -5.179688 6.90625 -4.921875 L 9.578125 -0.09375 L 9.578125 0 L 7.96875 0 Z M 2.828125 -5.828125 L 5.125 -5.828125 C 5.875 -5.828125 6.46875 -6.019531 6.90625 -6.40625 C 7.34375 -6.789062 7.5625 -7.304688 7.5625 -7.953125 C 7.5625 -8.660156 7.351562 -9.203125 6.9375 -9.578125 C 6.519531 -9.953125 5.914062 -10.140625 5.125 -10.140625 L 2.828125 -10.140625 Z M 2.828125 -5.828125 "/></g></g></g><g fill="#76b9f0" fill-opacity="1"><g transform="translate(123.932533, 288.325968)"><g/></g></g><g fill="#76b9f0" fill-opacity="1"><g transform="translate(130.148506, 288.325968)"><g><path d="M 5.09375 -2 L 8.34375 -11.375 L 9.984375 -11.375 L 5.765625 0 L 4.4375 0 L 0.21875 -11.375 L 1.859375 -11.375 Z M 5.09375 -2 "/></g></g></g><g fill="#76b9f0" fill-opacity="1"><g transform="translate(142.58171, 288.325968)"><g><path d="M 2.9375 0 L 1.4375 0 L 1.4375 -11.375 L 2.9375 -11.375 Z M 2.9375 0 "/></g></g></g><g fill="#76b9f0" fill-opacity="1"><g transform="translate(149.188212, 288.325968)"><g><path d="M 4.671875 -5.078125 C 3.390625 -5.441406 2.453125 -5.894531 1.859375 -6.4375 C 1.273438 -6.976562 0.984375 -7.644531 0.984375 -8.4375 C 0.984375 -9.332031 1.34375 -10.070312 2.0625 -10.65625 C 2.78125 -11.238281 3.710938 -11.53125 4.859375 -11.53125 C 5.640625 -11.53125 6.332031 -11.378906 6.9375 -11.078125 C 7.550781 -10.773438 8.023438 -10.359375 8.359375 -9.828125 C 8.703125 -9.296875 8.875 -8.71875 8.875 -8.09375 L 7.359375 -8.09375 C 7.359375 -8.78125 7.140625 -9.316406 6.703125 -9.703125 C 6.265625 -10.097656 5.648438 -10.296875 4.859375 -10.296875 C 4.117188 -10.296875 3.539062 -10.132812 3.125 -9.8125 C 2.707031 -9.488281 2.5 -9.035156 2.5 -8.453125 C 2.5 -7.992188 2.695312 -7.601562 3.09375 -7.28125 C 3.488281 -6.957031 4.15625 -6.660156 5.09375 -6.390625 C 6.039062 -6.128906 6.78125 -5.835938 7.3125 -5.515625 C 7.851562 -5.203125 8.25 -4.832031 8.5 -4.40625 C 8.757812 -3.976562 8.890625 -3.472656 8.890625 -2.890625 C 8.890625 -1.972656 8.53125 -1.234375 7.8125 -0.671875 C 7.09375 -0.117188 6.132812 0.15625 4.9375 0.15625 C 4.15625 0.15625 3.425781 0.00390625 2.75 -0.296875 C 2.070312 -0.597656 1.546875 -1.007812 1.171875 -1.53125 C 0.804688 -2.050781 0.625 -2.640625 0.625 -3.296875 L 2.140625 -3.296875 C 2.140625 -2.609375 2.390625 -2.066406 2.890625 -1.671875 C 3.398438 -1.273438 4.082031 -1.078125 4.9375 -1.078125 C 5.726562 -1.078125 6.332031 -1.238281 6.75 -1.5625 C 7.175781 -1.882812 7.390625 -2.320312 7.390625 -2.875 C 7.390625 -3.4375 7.191406 -3.867188 6.796875 -4.171875 C 6.410156 -4.472656 5.703125 -4.773438 4.671875 -5.078125 Z M 4.671875 -5.078125 "/></g></g></g><g fill="#76b9f0" fill-opacity="1"><g transform="translate(160.934083, 288.325968)"><g><path d="M 2.9375 0 L 1.4375 0 L 1.4375 -11.375 L 2.9375 -11.375 Z M 2.9375 0 "/></g></g></g><g fill="#76b9f0" fill-opacity="1"><g transform="translate(167.540585, 288.325968)"><g><path d="M 10.078125 -5.328125 C 10.078125 -4.210938 9.890625 -3.238281 9.515625 -2.40625 C 9.140625 -1.570312 8.609375 -0.9375 7.921875 -0.5 C 7.234375 -0.0625 6.429688 0.15625 5.515625 0.15625 C 4.617188 0.15625 3.820312 -0.0625 3.125 -0.5 C 2.4375 -0.945312 1.898438 -1.578125 1.515625 -2.390625 C 1.128906 -3.203125 0.929688 -4.144531 0.921875 -5.21875 L 0.921875 -6.046875 C 0.921875 -7.140625 1.109375 -8.101562 1.484375 -8.9375 C 1.867188 -9.78125 2.410156 -10.421875 3.109375 -10.859375 C 3.804688 -11.304688 4.601562 -11.53125 5.5 -11.53125 C 6.40625 -11.53125 7.207031 -11.3125 7.90625 -10.875 C 8.601562 -10.4375 9.140625 -9.796875 9.515625 -8.953125 C 9.890625 -8.117188 10.078125 -7.148438 10.078125 -6.046875 Z M 8.578125 -6.0625 C 8.578125 -7.40625 8.304688 -8.4375 7.765625 -9.15625 C 7.222656 -9.882812 6.46875 -10.25 5.5 -10.25 C 4.550781 -10.25 3.800781 -9.882812 3.25 -9.15625 C 2.707031 -8.4375 2.429688 -7.4375 2.421875 -6.15625 L 2.421875 -5.328125 C 2.421875 -4.015625 2.691406 -2.984375 3.234375 -2.234375 C 3.785156 -1.492188 4.546875 -1.125 5.515625 -1.125 C 6.484375 -1.125 7.234375 -1.472656 7.765625 -2.171875 C 8.296875 -2.878906 8.566406 -3.894531 8.578125 -5.21875 Z M 8.578125 -6.0625 "/></g></g></g><g fill="#76b9f0" fill-opacity="1"><g transform="translate(180.793896, 288.325968)"><g><path d="M 10.0625 0 L 8.5625 0 L 2.828125 -8.765625 L 2.828125 0 L 1.328125 0 L 1.328125 -11.375 L 2.828125 -11.375 L 8.578125 -2.578125 L 8.578125 -11.375 L 10.0625 -11.375 Z M 10.0625 0 "/></g></g></g><g fill="#76b9f0" fill-opacity="1"><g transform="translate(194.453357, 288.325968)"><g><path d="M 1.046875 2.265625 L 0.234375 1.703125 C 0.722656 1.023438 0.976562 0.320312 1 -0.40625 L 1 -1.71875 L 2.40625 -1.71875 L 2.40625 -0.578125 C 2.40625 -0.046875 2.273438 0.476562 2.015625 1 C 1.765625 1.53125 1.441406 1.953125 1.046875 2.265625 Z M 1.046875 2.265625 "/></g></g></g><g fill="#76b9f0" fill-opacity="1"><g transform="translate(199.849212, 288.325968)"><g/></g></g><g fill="#76b9f0" fill-opacity="1"><g transform="translate(206.065184, 288.325968)"><g><path d="M 10.078125 -5.328125 C 10.078125 -4.210938 9.890625 -3.238281 9.515625 -2.40625 C 9.140625 -1.570312 8.609375 -0.9375 7.921875 -0.5 C 7.234375 -0.0625 6.429688 0.15625 5.515625 0.15625 C 4.617188 0.15625 3.820312 -0.0625 3.125 -0.5 C 2.4375 -0.945312 1.898438 -1.578125 1.515625 -2.390625 C 1.128906 -3.203125 0.929688 -4.144531 0.921875 -5.21875 L 0.921875 -6.046875 C 0.921875 -7.140625 1.109375 -8.101562 1.484375 -8.9375 C 1.867188 -9.78125 2.410156 -10.421875 3.109375 -10.859375 C 3.804688 -11.304688 4.601562 -11.53125 5.5 -11.53125 C 6.40625 -11.53125 7.207031 -11.3125 7.90625 -10.875 C 8.601562 -10.4375 9.140625 -9.796875 9.515625 -8.953125 C 9.890625 -8.117188 10.078125 -7.148438 10.078125 -6.046875 Z M 8.578125 -6.0625 C 8.578125 -7.40625 8.304688 -8.4375 7.765625 -9.15625 C 7.222656 -9.882812 6.46875 -10.25 5.5 -10.25 C 4.550781 -10.25 3.800781 -9.882812 3.25 -9.15625 C 2.707031 -8.4375 2.429688 -7.4375 2.421875 -6.15625 L 2.421875 -5.328125 C 2.421875 -4.015625 2.691406 -2.984375 3.234375 -2.234375 C 3.785156 -1.492188 4.546875 -1.125 5.515625 -1.125 C 6.484375 -1.125 7.234375 -1.472656 7.765625 -2.171875 C 8.296875 -2.878906 8.566406 -3.894531 8.578125 -5.21875 Z M 8.578125 -6.0625 "/></g></g></g><g fill="#76b9f0" fill-opacity="1"><g transform="translate(219.318495, 288.325968)"><g><path d="M 9.328125 -11.375 L 9.328125 -3.640625 C 9.328125 -2.566406 8.988281 -1.6875 8.3125 -1 C 7.644531 -0.320312 6.738281 0.0546875 5.59375 0.140625 L 5.203125 0.15625 C 3.953125 0.15625 2.957031 -0.175781 2.21875 -0.84375 C 1.476562 -1.519531 1.101562 -2.445312 1.09375 -3.625 L 1.09375 -11.375 L 2.578125 -11.375 L 2.578125 -3.671875 C 2.578125 -2.847656 2.800781 -2.207031 3.25 -1.75 C 3.707031 -1.300781 4.359375 -1.078125 5.203125 -1.078125 C 6.046875 -1.078125 6.691406 -1.300781 7.140625 -1.75 C 7.597656 -2.207031 7.828125 -2.847656 7.828125 -3.671875 L 7.828125 -11.375 Z M 9.328125 -11.375 "/></g></g></g><g fill="#76b9f0" fill-opacity="1"><g transform="translate(231.946958, 288.325968)"><g><path d="M 5.5 -4.609375 L 2.828125 -4.609375 L 2.828125 0 L 1.3125 0 L 1.3125 -11.375 L 5.078125 -11.375 C 6.359375 -11.375 7.34375 -11.082031 8.03125 -10.5 C 8.726562 -9.914062 9.078125 -9.066406 9.078125 -7.953125 C 9.078125 -7.242188 8.882812 -6.625 8.5 -6.09375 C 8.113281 -5.570312 7.582031 -5.179688 6.90625 -4.921875 L 9.578125 -0.09375 L 9.578125 0 L 7.96875 0 Z M 2.828125 -5.828125 L 5.125 -5.828125 C 5.875 -5.828125 6.46875 -6.019531 6.90625 -6.40625 C 7.34375 -6.789062 7.5625 -7.304688 7.5625 -7.953125 C 7.5625 -8.660156 7.351562 -9.203125 6.9375 -9.578125 C 6.519531 -9.953125 5.914062 -10.140625 5.125 -10.140625 L 2.828125 -10.140625 Z M 2.828125 -5.828125 "/></g></g></g><g fill="#76b9f0" fill-opacity="1"><g transform="translate(244.052117, 288.325968)"><g/></g></g><g fill="#76b9f0" fill-opacity="1"><g transform="translate(250.26809, 288.325968)"><g><path d="M 9.6875 -3.609375 C 9.550781 -2.410156 9.109375 -1.484375 8.359375 -0.828125 C 7.609375 -0.171875 6.613281 0.15625 5.375 0.15625 C 4.03125 0.15625 2.953125 -0.320312 2.140625 -1.28125 C 1.335938 -2.25 0.9375 -3.539062 0.9375 -5.15625 L 0.9375 -6.25 C 0.9375 -7.3125 1.125 -8.242188 1.5 -9.046875 C 1.875 -9.847656 2.40625 -10.460938 3.09375 -10.890625 C 3.789062 -11.316406 4.597656 -11.53125 5.515625 -11.53125 C 6.722656 -11.53125 7.691406 -11.191406 8.421875 -10.515625 C 9.148438 -9.847656 9.570312 -8.914062 9.6875 -7.71875 L 8.1875 -7.71875 C 8.050781 -8.625 7.765625 -9.28125 7.328125 -9.6875 C 6.898438 -10.09375 6.296875 -10.296875 5.515625 -10.296875 C 4.554688 -10.296875 3.800781 -9.941406 3.25 -9.234375 C 2.707031 -8.523438 2.4375 -7.519531 2.4375 -6.21875 L 2.4375 -5.109375 C 2.4375 -3.878906 2.691406 -2.898438 3.203125 -2.171875 C 3.722656 -1.441406 4.445312 -1.078125 5.375 -1.078125 C 6.207031 -1.078125 6.847656 -1.265625 7.296875 -1.640625 C 7.742188 -2.015625 8.039062 -2.671875 8.1875 -3.609375 Z M 9.6875 -3.609375 "/></g></g></g><g fill="#76b9f0" fill-opacity="1"><g transform="translate(262.935611, 288.325968)"><g><path d="M 10.078125 -5.328125 C 10.078125 -4.210938 9.890625 -3.238281 9.515625 -2.40625 C 9.140625 -1.570312 8.609375 -0.9375 7.921875 -0.5 C 7.234375 -0.0625 6.429688 0.15625 5.515625 0.15625 C 4.617188 0.15625 3.820312 -0.0625 3.125 -0.5 C 2.4375 -0.945312 1.898438 -1.578125 1.515625 -2.390625 C 1.128906 -3.203125 0.929688 -4.144531 0.921875 -5.21875 L 0.921875 -6.046875 C 0.921875 -7.140625 1.109375 -8.101562 1.484375 -8.9375 C 1.867188 -9.78125 2.410156 -10.421875 3.109375 -10.859375 C 3.804688 -11.304688 4.601562 -11.53125 5.5 -11.53125 C 6.40625 -11.53125 7.207031 -11.3125 7.90625 -10.875 C 8.601562 -10.4375 9.140625 -9.796875 9.515625 -8.953125 C 9.890625 -8.117188 10.078125 -7.148438 10.078125 -6.046875 Z M 8.578125 -6.0625 C 8.578125 -7.40625 8.304688 -8.4375 7.765625 -9.15625 C 7.222656 -9.882812 6.46875 -10.25 5.5 -10.25 C 4.550781 -10.25 3.800781 -9.882812 3.25 -9.15625 C 2.707031 -8.4375 2.429688 -7.4375 2.421875 -6.15625 L 2.421875 -5.328125 C 2.421875 -4.015625 2.691406 -2.984375 3.234375 -2.234375 C 3.785156 -1.492188 4.546875 -1.125 5.515625 -1.125 C 6.484375 -1.125 7.234375 -1.472656 7.765625 -2.171875 C 8.296875 -2.878906 8.566406 -3.894531 8.578125 -5.21875 Z M 8.578125 -6.0625 "/></g></g></g><g fill="#76b9f0" fill-opacity="1"><g transform="translate(276.188933, 288.325968)"><g><path d="M 1.328125 0 L 1.328125 -11.375 L 4.53125 -11.375 C 5.519531 -11.375 6.394531 -11.15625 7.15625 -10.71875 C 7.914062 -10.28125 8.503906 -9.65625 8.921875 -8.84375 C 9.335938 -8.039062 9.546875 -7.117188 9.546875 -6.078125 L 9.546875 -5.34375 C 9.546875 -4.269531 9.335938 -3.328125 8.921875 -2.515625 C 8.515625 -1.710938 7.925781 -1.09375 7.15625 -0.65625 C 6.382812 -0.226562 5.488281 -0.0078125 4.46875 0 Z M 2.828125 -10.140625 L 2.828125 -1.234375 L 4.40625 -1.234375 C 5.5625 -1.234375 6.457031 -1.59375 7.09375 -2.3125 C 7.738281 -3.03125 8.0625 -4.050781 8.0625 -5.375 L 8.0625 -6.046875 C 8.0625 -7.335938 7.757812 -8.335938 7.15625 -9.046875 C 6.550781 -9.765625 5.691406 -10.128906 4.578125 -10.140625 Z M 2.828125 -10.140625 "/></g></g></g><g fill="#76b9f0" fill-opacity="1"><g transform="translate(288.934561, 288.325968)"><g><path d="M 7.75 -5.265625 L 2.828125 -5.265625 L 2.828125 -1.234375 L 8.546875 -1.234375 L 8.546875 0 L 1.328125 0 L 1.328125 -11.375 L 8.46875 -11.375 L 8.46875 -10.140625 L 2.828125 -10.140625 L 2.828125 -6.484375 L 7.75 -6.484375 Z M 7.75 -5.265625 "/></g></g></g><g fill="#76b9f0" fill-opacity="1"><g transform="translate(300.282086, 288.325968)"><g><path d="M 1.125 -0.765625 C 1.125 -1.015625 1.195312 -1.222656 1.34375 -1.390625 C 1.5 -1.554688 1.722656 -1.640625 2.015625 -1.640625 C 2.316406 -1.640625 2.539062 -1.554688 2.6875 -1.390625 C 2.84375 -1.222656 2.921875 -1.015625 2.921875 -0.765625 C 2.921875 -0.523438 2.84375 -0.320312 2.6875 -0.15625 C 2.539062 0.0078125 2.316406 0.09375 2.015625 0.09375 C 1.722656 0.09375 1.5 0.0078125 1.34375 -0.15625 C 1.195312 -0.320312 1.125 -0.523438 1.125 -0.765625 Z M 1.125 -0.765625 "/></g></g></g></svg>