<svg xmlns="http://www.w3.org/2000/svg" xmlns:xlink="http://www.w3.org/1999/xlink" width="100" zoomAndPan="magnify" viewBox="0 0 375 374.999991" height="100" preserveAspectRatio="xMidYMid meet" version="1.0"><defs><clipPath id="d0e63ef336"><path d="M 92.292969 92 L 282.699219 92 L 282.699219 204.488281 L 92.292969 204.488281 Z M 92.292969 92 " clip-rule="nonzero"/></clipPath><clipPath id="c7d8c544cc"><path d="M 172.613281 76.96875 L 202.613281 76.96875 L 202.613281 106.96875 L 172.613281 106.96875 Z M 172.613281 76.96875 " clip-rule="nonzero"/></clipPath></defs><g clip-path="url(#d0e63ef336)"><path fill="#061bb0" d="M 187.496094 196.214844 C 182.230469 196.214844 177.296875 193.878906 173.964844 189.808594 L 101.441406 101.273438 C 101.304688 101.105469 101.289062 100.972656 101.378906 100.78125 C 101.472656 100.589844 101.585938 100.515625 101.796875 100.515625 L 145.820312 100.515625 C 145.964844 100.515625 146.085938 100.578125 146.179688 100.6875 L 180.558594 142.65625 C 180.921875 143.101562 181.328125 143.511719 181.765625 143.875 C 181.785156 143.894531 181.804688 143.914062 181.824219 143.929688 L 181.953125 144.054688 C 182.019531 144.117188 182.085938 144.179688 182.15625 144.242188 C 182.210938 144.296875 182.265625 144.347656 182.320312 144.398438 L 182.449219 144.515625 C 182.519531 144.582031 182.585938 144.648438 182.660156 144.714844 C 182.710938 144.765625 182.765625 144.8125 182.820312 144.863281 L 182.949219 144.980469 C 183.023438 145.046875 183.09375 145.113281 183.164062 145.175781 C 183.214844 145.222656 183.265625 145.265625 183.316406 145.3125 L 183.453125 145.433594 C 183.527344 145.5 183.601562 145.566406 183.675781 145.632812 C 183.722656 145.675781 183.773438 145.71875 183.824219 145.761719 L 183.957031 145.878906 C 184.035156 145.945312 184.113281 146.011719 184.191406 146.078125 C 184.238281 146.121094 184.285156 146.164062 184.335938 146.203125 L 184.460938 146.3125 C 184.542969 146.382812 184.625 146.453125 184.707031 146.519531 L 184.964844 146.738281 C 185.054688 146.8125 185.140625 146.882812 185.226562 146.957031 C 185.269531 146.992188 185.316406 147.027344 185.359375 147.0625 L 185.472656 147.15625 C 185.566406 147.230469 185.65625 147.304688 185.75 147.378906 L 186.007812 147.585938 C 186.097656 147.65625 186.1875 147.726562 186.277344 147.796875 L 186.515625 147.988281 C 186.613281 148.058594 186.707031 148.136719 186.804688 148.210938 L 187.03125 148.382812 C 187.132812 148.460938 187.238281 148.539062 187.335938 148.613281 L 187.5625 148.78125 C 187.667969 148.859375 187.769531 148.933594 187.875 149.011719 L 188.082031 149.164062 C 188.191406 149.242188 188.300781 149.320312 188.414062 149.402344 L 188.621094 149.546875 C 188.730469 149.625 188.84375 149.703125 188.953125 149.78125 L 189.121094 149.898438 C 189.246094 149.980469 189.371094 150.070312 189.496094 150.152344 L 189.667969 150.269531 C 189.792969 150.355469 189.917969 150.4375 190.046875 150.523438 L 190.203125 150.625 C 190.335938 150.710938 190.464844 150.796875 190.59375 150.878906 L 190.753906 150.980469 C 190.886719 151.066406 191.015625 151.148438 191.148438 151.230469 L 191.289062 151.320312 C 191.429688 151.40625 191.566406 151.492188 191.703125 151.574219 L 191.839844 151.65625 C 191.980469 151.742188 192.121094 151.828125 192.261719 151.910156 L 192.394531 151.992188 C 192.535156 152.074219 192.675781 152.15625 192.820312 152.238281 L 192.957031 152.316406 C 193.097656 152.398438 193.238281 152.476562 193.382812 152.558594 L 193.511719 152.628906 C 193.65625 152.710938 193.800781 152.792969 193.949219 152.871094 L 194.066406 152.933594 C 194.21875 153.019531 194.367188 153.097656 194.515625 153.175781 L 194.625 153.234375 C 194.78125 153.316406 194.933594 153.394531 195.082031 153.472656 L 195.195312 153.527344 C 195.351562 153.609375 195.503906 153.6875 195.65625 153.761719 L 195.761719 153.8125 C 195.917969 153.890625 196.074219 153.96875 196.230469 154.042969 L 196.347656 154.097656 C 196.5 154.171875 196.652344 154.246094 196.808594 154.316406 L 196.914062 154.363281 C 197.070312 154.4375 197.226562 154.507812 197.386719 154.578125 L 197.484375 154.625 C 197.648438 154.695312 197.804688 154.769531 197.964844 154.839844 L 198.066406 154.882812 C 198.222656 154.949219 198.386719 155.019531 198.546875 155.085938 L 198.640625 155.128906 C 198.804688 155.195312 198.96875 155.261719 199.132812 155.328125 L 199.222656 155.367188 C 199.386719 155.433594 199.550781 155.496094 199.71875 155.5625 L 199.800781 155.59375 C 199.972656 155.660156 200.140625 155.726562 200.304688 155.785156 L 200.390625 155.816406 C 200.558594 155.878906 200.726562 155.945312 200.894531 156.003906 L 200.984375 156.035156 C 201.148438 156.09375 201.316406 156.15625 201.488281 156.210938 L 201.574219 156.242188 C 201.746094 156.300781 201.914062 156.355469 202.082031 156.414062 L 202.160156 156.441406 C 202.332031 156.496094 202.503906 156.550781 202.675781 156.605469 L 202.746094 156.628906 C 202.921875 156.683594 203.097656 156.738281 203.269531 156.789062 L 203.34375 156.8125 C 203.515625 156.863281 203.691406 156.914062 203.871094 156.964844 L 203.945312 156.988281 C 204.117188 157.035156 204.292969 157.085938 204.46875 157.132812 L 204.546875 157.15625 C 204.71875 157.199219 204.894531 157.246094 205.070312 157.292969 L 205.148438 157.3125 C 205.320312 157.355469 205.496094 157.402344 205.671875 157.445312 L 205.730469 157.457031 C 205.914062 157.503906 206.09375 157.546875 206.273438 157.585938 L 206.351562 157.605469 C 206.527344 157.644531 206.703125 157.683594 206.878906 157.71875 L 206.9375 157.734375 C 207.125 157.773438 207.304688 157.8125 207.484375 157.847656 L 207.539062 157.859375 C 207.730469 157.894531 207.910156 157.929688 208.089844 157.964844 L 208.144531 157.972656 C 208.332031 158.007812 208.515625 158.042969 208.699219 158.074219 L 208.753906 158.082031 C 208.941406 158.113281 209.125 158.144531 209.304688 158.171875 L 209.363281 158.183594 C 209.546875 158.210938 209.730469 158.238281 209.914062 158.265625 L 209.972656 158.273438 C 210.15625 158.296875 210.339844 158.324219 210.527344 158.347656 L 210.582031 158.355469 C 210.765625 158.378906 210.953125 158.402344 211.136719 158.421875 L 211.164062 158.425781 C 211.363281 158.449219 211.554688 158.46875 211.75 158.488281 L 211.785156 158.492188 C 211.980469 158.511719 212.171875 158.53125 212.359375 158.546875 L 212.425781 158.550781 C 212.613281 158.566406 212.796875 158.582031 212.976562 158.59375 L 213.023438 158.597656 C 213.214844 158.609375 213.398438 158.625 213.585938 158.632812 L 213.640625 158.636719 C 213.828125 158.648438 214.015625 158.65625 214.199219 158.664062 L 214.257812 158.667969 C 214.449219 158.675781 214.632812 158.679688 214.816406 158.6875 L 214.886719 158.6875 C 215.070312 158.695312 215.25 158.699219 215.429688 158.699219 L 215.523438 158.699219 C 215.695312 158.703125 215.871094 158.703125 216.042969 158.707031 L 216.136719 158.703125 C 216.53125 158.703125 216.914062 158.699219 217.273438 158.6875 C 217.320312 158.6875 217.367188 158.683594 217.410156 158.683594 L 217.546875 158.679688 C 217.660156 158.675781 217.773438 158.671875 217.890625 158.667969 C 218.09375 158.65625 218.300781 158.648438 218.507812 158.636719 C 218.902344 158.613281 219.300781 158.582031 219.699219 158.550781 C 222.460938 158.316406 225.1875 157.8125 227.863281 157.042969 L 201.023438 189.808594 C 197.6875 193.878906 192.757812 196.214844 187.496094 196.214844 Z M 194.121094 143.011719 C 194.226562 142.898438 194.332031 142.777344 194.429688 142.65625 L 228.808594 100.6875 C 228.902344 100.574219 229.023438 100.515625 229.167969 100.515625 L 273.191406 100.515625 C 273.40625 100.515625 273.515625 100.589844 273.609375 100.78125 C 273.699219 100.972656 273.683594 101.109375 273.546875 101.273438 L 246.425781 134.382812 L 246.386719 134.429688 C 246.289062 134.546875 246.191406 134.664062 246.09375 134.78125 L 246.003906 134.890625 C 245.949219 134.960938 245.886719 135.027344 245.828125 135.097656 L 245.394531 135.601562 C 245.34375 135.664062 245.292969 135.722656 245.238281 135.78125 L 245.117188 135.917969 C 245.03125 136.019531 244.941406 136.121094 244.851562 136.222656 L 244.816406 136.257812 C 237.605469 144.300781 228.882812 149.058594 219.597656 150.019531 C 219.425781 150.035156 219.257812 150.050781 219.085938 150.066406 L 219 150.074219 C 218.679688 150.101562 218.347656 150.125 218.015625 150.144531 C 217.765625 150.160156 217.5 150.171875 217.207031 150.179688 L 217.105469 150.183594 C 216.859375 150.191406 216.597656 150.195312 216.328125 150.199219 L 216.210938 150.199219 C 215.9375 150.199219 215.675781 150.199219 215.425781 150.195312 L 215.339844 150.195312 C 214.777344 150.179688 214.214844 150.15625 213.664062 150.117188 L 213.628906 150.113281 C 213.363281 150.09375 213.097656 150.074219 212.808594 150.046875 L 212.730469 150.039062 C 212.453125 150.011719 212.183594 149.980469 211.917969 149.949219 L 211.851562 149.941406 C 211.003906 149.835938 210.148438 149.703125 209.304688 149.535156 L 209.234375 149.523438 C 208.972656 149.472656 208.699219 149.414062 208.429688 149.355469 L 208.355469 149.335938 C 208.070312 149.273438 207.792969 149.207031 207.53125 149.144531 L 207.507812 149.136719 C 206.953125 149 206.390625 148.84375 205.832031 148.675781 L 205.765625 148.660156 C 205.507812 148.582031 205.242188 148.496094 204.96875 148.410156 L 204.882812 148.382812 C 204.609375 148.292969 204.339844 148.199219 204.085938 148.109375 L 204.03125 148.089844 C 203.484375 147.898438 202.933594 147.691406 202.394531 147.472656 L 202.328125 147.445312 C 202.082031 147.347656 201.820312 147.238281 201.550781 147.121094 L 201.449219 147.078125 C 201.1875 146.964844 200.929688 146.851562 200.683594 146.738281 L 200.597656 146.699219 C 200.304688 146.5625 200.050781 146.441406 199.804688 146.324219 L 199.792969 146.316406 C 199.542969 146.195312 199.285156 146.070312 199.007812 145.925781 L 198.941406 145.890625 C 198.699219 145.765625 198.453125 145.640625 198.1875 145.496094 L 198.070312 145.429688 C 197.824219 145.296875 197.578125 145.160156 197.335938 145.023438 L 197.222656 144.957031 C 196.953125 144.804688 196.710938 144.660156 196.480469 144.523438 L 196.417969 144.488281 C 196.175781 144.339844 195.925781 144.1875 195.679688 144.035156 L 195.621094 143.996094 C 195.394531 143.855469 195.15625 143.703125 194.890625 143.527344 L 194.769531 143.449219 C 194.554688 143.308594 194.339844 143.160156 194.121094 143.011719 Z M 273.191406 92.011719 L 229.167969 92.011719 C 226.46875 92.011719 223.9375 93.210938 222.230469 95.300781 L 187.851562 137.265625 C 187.703125 137.449219 187.398438 137.488281 187.214844 137.34375 L 187.207031 137.335938 C 187.183594 137.320312 187.160156 137.296875 187.140625 137.269531 L 152.757812 95.296875 C 151.046875 93.210938 148.519531 92.011719 145.820312 92.011719 L 101.796875 92.011719 C 98.296875 92.011719 95.195312 93.976562 93.695312 97.140625 C 92.195312 100.304688 92.644531 103.953125 94.863281 106.660156 L 167.386719 195.195312 C 172.339844 201.246094 179.671875 204.71875 187.496094 204.71875 C 195.316406 204.71875 202.644531 201.246094 207.601562 195.195312 L 252.929688 139.859375 C 252.964844 139.824219 252.996094 139.785156 253.023438 139.75 L 280.128906 106.660156 C 282.347656 103.953125 282.792969 100.304688 281.292969 97.140625 C 279.796875 93.976562 276.691406 92.011719 273.191406 92.011719 " fill-opacity="1" fill-rule="nonzero"/></g><g clip-path="url(#c7d8c544cc)"><path fill="#061bb0" d="M 187.578125 107.003906 C 179.324219 107.003906 172.625 100.90625 172.625 93.394531 C 172.625 89.65625 174.292969 86.273438 176.980469 83.8125 L 176.992188 83.824219 C 177.535156 83.140625 178.414062 82.691406 179.410156 82.691406 C 181.0625 82.691406 182.402344 83.910156 182.402344 85.414062 C 182.402344 86.335938 181.898438 87.148438 181.125 87.640625 L 181.136719 87.648438 C 179.523438 89.128906 178.511719 91.152344 178.511719 93.394531 C 178.511719 97.925781 182.570312 101.601562 187.570312 101.601562 C 192.566406 101.601562 196.625 97.925781 196.625 93.394531 C 196.625 91.347656 195.777344 89.488281 194.402344 88.054688 C 193.585938 87.566406 193.039062 86.730469 193.039062 85.777344 C 193.039062 84.273438 194.382812 83.054688 196.03125 83.054688 C 196.839844 83.054688 197.566406 83.351562 198.105469 83.824219 L 198.148438 83.785156 C 200.851562 86.246094 202.527344 89.640625 202.527344 93.394531 C 202.527344 100.90625 195.832031 107.003906 187.578125 107.003906 Z M 187.574219 93.488281 C 185.917969 93.488281 184.585938 92.253906 184.585938 90.71875 L 184.585938 79.742188 C 184.585938 78.207031 185.917969 76.96875 187.574219 76.96875 C 189.230469 76.96875 190.566406 78.207031 190.566406 79.742188 L 190.566406 90.71875 C 190.566406 92.253906 189.230469 93.488281 187.574219 93.488281 Z M 187.574219 93.488281 " fill-opacity="1" fill-rule="evenodd"/></g></svg>