<svg width="250" height="60" viewBox="44.2 0 333 101" fill="none" xmlns="http://www.w3.org/2000/svg">
<mask id="mask0_63_302" style="mask-type:luminance" maskUnits="userSpaceOnUse" x="0" y="11" width="151" height="90">
<path d="M0 11.9053H150.539V101H0V11.9053Z" fill="white"/>
</mask>
<g mask="url(#mask0_63_302)">
<path d="M75.2694 94.4471C71.1063 94.4471 67.2057 92.597 64.5714 89.3731L7.23289 19.2501C7.1248 19.1171 7.11244 19.0119 7.18347 18.8603C7.2576 18.7087 7.34716 18.6499 7.51393 18.6499H42.3197C42.434 18.6499 42.5297 18.6994 42.6039 18.786L69.7845 52.0268C70.0717 52.3795 70.3929 52.7013 70.7388 52.9921C70.7542 53.0075 70.7697 53.023 70.7851 53.0354L70.887 53.1344C70.9395 53.1839 70.9921 53.2334 71.0476 53.2829C71.0909 53.3262 71.1341 53.3664 71.1773 53.4067L71.2793 53.4995C71.3349 53.5521 71.3874 53.6047 71.446 53.6573C71.4862 53.6975 71.5294 53.7346 71.5727 53.7748L71.6746 53.8677C71.7333 53.9202 71.7888 53.9728 71.8444 54.0223C71.8846 54.0595 71.9247 54.0935 71.9649 54.1306L72.073 54.2265C72.1317 54.2791 72.1903 54.3317 72.249 54.3843C72.2861 54.4184 72.3262 54.4524 72.3664 54.4864L72.4714 54.5792C72.5331 54.6318 72.5949 54.6844 72.6567 54.737C72.6937 54.7711 72.7308 54.8051 72.7709 54.836L72.8698 54.9227C72.9346 54.9784 72.9995 55.034 73.0643 55.0866L73.2682 55.2599C73.3392 55.3187 73.4071 55.3744 73.4751 55.4332C73.5091 55.461 73.5461 55.4888 73.5801 55.5167L73.6697 55.5909C73.7438 55.6497 73.8148 55.7085 73.8889 55.7673L74.0928 55.9313C74.1638 55.987 74.2348 56.0427 74.3059 56.0983L74.4942 56.2499C74.5715 56.3056 74.6456 56.3675 74.7228 56.4263L74.9019 56.5624C74.9822 56.6243 75.0656 56.6862 75.1428 56.745L75.3219 56.878C75.4053 56.9399 75.4856 56.9987 75.569 57.0605L75.7327 57.1812C75.8192 57.2431 75.9056 57.305 75.9952 57.3699L76.1589 57.4844C76.2453 57.5463 76.3349 57.6082 76.4214 57.67L76.5542 57.7629C76.653 57.8278 76.7518 57.899 76.8507 57.964L76.9865 58.0568C77.0854 58.1248 77.1842 58.1898 77.2861 58.2579L77.4097 58.3383C77.5147 58.4064 77.6166 58.4745 77.7185 58.5394L77.8451 58.6199C77.9501 58.6879 78.052 58.7529 78.157 58.8179L78.2682 58.889C78.3794 58.9571 78.4875 59.0221 78.5956 59.0901L78.7037 59.1551C78.8149 59.2232 78.926 59.2912 79.0372 59.3562L79.1422 59.4212C79.2534 59.4862 79.3646 59.5511 79.4789 59.6161L79.587 59.678C79.6981 59.7429 79.8093 59.8048 79.9236 59.8698L80.0255 59.9255C80.1398 59.9905 80.254 60.0554 80.3714 60.1173L80.464 60.1668C80.5845 60.2349 80.7018 60.2968 80.8192 60.3586L80.9057 60.405C81.0292 60.47 81.1497 60.5319 81.267 60.5938L81.3566 60.6371C81.4801 60.7021 81.6006 60.7639 81.721 60.8227L81.8044 60.8629C81.9279 60.9248 82.0515 60.9867 82.175 61.0455L82.2676 61.0888C82.3881 61.1476 82.5085 61.2064 82.6321 61.262L82.7155 61.2992C82.839 61.358 82.9625 61.4136 83.0891 61.4693L83.1664 61.5065C83.2961 61.5622 83.4196 61.6209 83.5462 61.6766L83.6265 61.7107C83.7501 61.7633 83.8798 61.8189 84.0064 61.8715L84.0805 61.9056C84.2102 61.9582 84.3399 62.0108 84.4696 62.0634L84.5407 62.0943C84.6704 62.1469 84.8001 62.1964 84.9329 62.249L84.9977 62.2737C85.1336 62.3263 85.2664 62.3789 85.3961 62.4253L85.4641 62.4501C85.5969 62.4996 85.7297 62.5522 85.8625 62.5986L85.9335 62.6234C86.0632 62.6698 86.196 62.7193 86.3319 62.7626L86.3999 62.7873C86.5358 62.8337 86.6686 62.8771 86.8014 62.9235L86.8631 62.9451C86.999 62.9884 87.1349 63.0317 87.2708 63.0751L87.3264 63.0936C87.4653 63.1369 87.6043 63.1803 87.7402 63.2205L87.7989 63.2359C87.9348 63.2793 88.0738 63.3195 88.2158 63.3597L88.2745 63.3783C88.4104 63.4154 88.5494 63.4556 88.6883 63.4927L88.7501 63.5113C88.886 63.5453 89.025 63.5825 89.1639 63.6196L89.2257 63.6351C89.3616 63.6691 89.5006 63.7062 89.6396 63.7402L89.6859 63.7495C89.831 63.7867 89.9731 63.8176 90.1152 63.8516L90.1769 63.8671C90.3159 63.898 90.4549 63.929 90.5939 63.9568L90.6402 63.9692C90.7884 64.0001 90.9305 64.0311 91.0726 64.0589L91.1158 64.0651C91.2671 64.096 91.4092 64.1239 91.5512 64.1517L91.5945 64.1579C91.7427 64.1858 91.8879 64.2136 92.033 64.2384L92.0763 64.2446C92.2245 64.2693 92.3697 64.2941 92.5117 64.3157L92.5581 64.325C92.7032 64.3467 92.8484 64.3683 92.9935 64.39L93.0398 64.3962C93.185 64.4147 93.3301 64.4364 93.4784 64.4549L93.5216 64.4611C93.6668 64.4797 93.815 64.4983 93.9602 64.5137L93.9818 64.5168C94.1393 64.5354 94.2906 64.5508 94.445 64.5663L94.4728 64.5694C94.6273 64.5849 94.7786 64.6004 94.9268 64.6127L94.9793 64.6158C95.1276 64.6282 95.2727 64.6406 95.4148 64.6499L95.4518 64.6529C95.6032 64.6622 95.7483 64.6746 95.8966 64.6808L95.9398 64.6839C96.088 64.6932 96.2363 64.6994 96.3814 64.7055L96.4278 64.7086C96.5791 64.7148 96.7243 64.7179 96.8694 64.7241H96.925C97.0701 64.7303 97.2122 64.7334 97.3543 64.7334H97.4284C97.5643 64.7365 97.7033 64.7365 97.8391 64.7396L97.9133 64.7365C98.2252 64.7365 98.5278 64.7334 98.812 64.7241C98.849 64.7241 98.8861 64.721 98.9201 64.721L99.0282 64.7179C99.1177 64.7148 99.2073 64.7117 99.2999 64.7086C99.4605 64.6994 99.6242 64.6932 99.7879 64.6839C100.1 64.6653 100.415 64.6406 100.73 64.6158C102.913 64.4302 105.069 64.0311 107.185 63.4216L85.9644 89.3731C83.327 92.597 79.4294 94.4471 75.2694 94.4471ZM80.5073 52.3083C80.5907 52.2186 80.674 52.1227 80.7513 52.0268L107.932 18.786C108.006 18.6963 108.102 18.6499 108.216 18.6499H143.022C143.192 18.6499 143.278 18.7087 143.352 18.8603C143.423 19.0119 143.411 19.1202 143.303 19.2501L121.86 45.4708L121.83 45.5111C121.752 45.6039 121.675 45.6967 121.598 45.7895L121.527 45.8761C121.484 45.9318 121.434 45.9844 121.388 46.0401L121.045 46.4392C121.005 46.4887 120.965 46.5351 120.922 46.5815L120.826 46.6898C120.758 46.7703 120.687 46.8507 120.616 46.9312L120.588 46.959C114.887 53.3293 107.991 57.0977 100.65 57.8588C100.514 57.8711 100.381 57.8835 100.245 57.8959L100.177 57.9021C99.9238 57.9237 99.6613 57.9423 99.3988 57.9578C99.2011 57.9701 98.9911 57.9794 98.7595 57.9856L98.6792 57.9887C98.4846 57.9949 98.2777 57.998 98.0646 58.0011H97.9719C97.7558 58.0011 97.5488 58.0011 97.3512 57.998H97.2832C96.8385 57.9856 96.3938 57.9671 95.9583 57.9361L95.9305 57.933C95.7205 57.9176 95.5105 57.9021 95.282 57.8804L95.2202 57.8742C95.0009 57.8526 94.7878 57.8278 94.5778 57.8031L94.5253 57.7969C93.8552 57.7134 93.1788 57.6082 92.5117 57.4751L92.4561 57.4658C92.2492 57.4256 92.033 57.3792 91.8199 57.3297L91.7613 57.3173C91.5358 57.2678 91.3165 57.2152 91.1096 57.1626L91.0911 57.1595C90.6525 57.0513 90.2078 56.9275 89.7662 56.7945L89.7137 56.7821C89.5098 56.7202 89.2998 56.6522 89.0836 56.5841L89.0157 56.5624C88.7995 56.4913 88.5864 56.417 88.3857 56.3459L88.3424 56.3304C87.9101 56.1788 87.4746 56.0148 87.0484 55.8416L86.9959 55.8199C86.8014 55.7425 86.5944 55.6559 86.3813 55.5631L86.301 55.5291C86.0941 55.4393 85.8903 55.3496 85.6957 55.2599L85.6278 55.229C85.3961 55.1207 85.1954 55.0248 85.0008 54.9319L84.9916 54.9258C84.7939 54.8298 84.5901 54.7308 84.3708 54.6164L84.3183 54.5885C84.1268 54.4895 83.9323 54.3905 83.7223 54.276L83.6296 54.2234C83.435 54.1183 83.2405 54.01 83.049 53.9017L82.9594 53.8491C82.7463 53.7284 82.5549 53.614 82.3727 53.5057L82.3232 53.4778C82.1318 53.3603 81.9341 53.2396 81.7395 53.1189L81.6932 53.088C81.5141 52.9766 81.3257 52.8559 81.1157 52.7167L81.0199 52.6548C80.8501 52.5435 80.6802 52.4259 80.5073 52.3083ZM143.022 11.9145H108.216C106.082 11.9145 104.081 12.8643 102.731 14.5196L75.5505 47.7572C75.4331 47.9026 75.1922 47.9336 75.0471 47.8191L75.0409 47.8129C75.0224 47.8005 75.0038 47.782 74.9884 47.7603L47.8047 14.5165C46.452 12.8643 44.4538 11.9145 42.3197 11.9145H7.51393C4.74676 11.9145 2.2946 13.4707 1.10867 15.9768C-0.0772558 18.4828 0.277905 21.3725 2.03209 23.5166L59.3706 93.6396C63.2866 98.432 69.0834 101.182 75.2694 101.182C81.4523 101.182 87.2461 98.432 91.1652 93.6396L127.003 49.8116C127.03 49.7837 127.055 49.7528 127.077 49.7249L148.507 23.5166C150.261 21.3725 150.613 18.4828 149.427 15.9768C148.244 13.4707 145.789 11.9145 143.022 11.9145Z" fill="#061BB0"/>
</g>
<mask id="mask1_63_302" style="mask-type:luminance" maskUnits="userSpaceOnUse" x="63" y="0" width="25" height="24">
<path d="M63.5028 0H87.2214V23.7611H63.5028V0Z" fill="white"/>
</mask>
<g mask="url(#mask1_63_302)">
<path fill-rule="evenodd" clip-rule="evenodd" d="M75.3343 23.7889C68.8086 23.7889 63.5121 18.9594 63.5121 13.0098C63.5121 10.049 64.8308 7.36964 66.9556 5.42049L66.9648 5.42977C67.3941 4.88834 68.089 4.53255 68.8765 4.53255C70.1829 4.53255 71.2422 5.49784 71.2422 6.68899C71.2422 7.41915 70.8438 8.06267 70.2323 8.4525L70.2416 8.45869C68.9661 9.63128 68.1662 11.2339 68.1662 13.0098C68.1662 16.5987 71.375 19.5101 75.3281 19.5101C79.2781 19.5101 82.4869 16.5987 82.4869 13.0098C82.4869 11.3886 81.8168 9.91591 80.7297 8.78046C80.0842 8.39372 79.6518 7.73163 79.6518 6.97672C79.6518 5.78557 80.7142 4.82028 82.0175 4.82028C82.6568 4.82028 83.2312 5.05541 83.6574 5.42977L83.6914 5.39884C85.8285 7.34799 87.1534 10.0366 87.1534 13.0098C87.1534 18.9594 81.86 23.7889 75.3343 23.7889ZM75.3312 13.0841C74.0217 13.0841 72.9686 12.1064 72.9686 10.8905V2.19666C72.9686 0.980762 74.0217 0 75.3312 0C76.6407 0 77.6969 0.980762 77.6969 2.19666V10.8905C77.6969 12.1064 76.6407 13.0841 75.3312 13.0841Z" fill="#061BB0"/>
</g>
<path d="M149.196 37.2133C149.591 37.0834 149.986 36.9998 150.382 36.9658C150.777 36.9349 151.163 36.9658 151.543 37.0648C151.92 37.1638 152.259 37.3463 152.556 37.6093C152.858 37.8754 153.093 38.2528 153.26 38.7479L159.498 57.1627H159.548L165.799 38.7479C165.962 38.2528 166.185 37.8754 166.466 37.6093C166.744 37.3463 167.065 37.1638 167.429 37.0648C167.791 36.9658 168.171 36.9349 168.566 36.9658C168.967 36.9998 169.369 37.0834 169.764 37.2133C170.521 37.4794 171.089 37.9311 171.469 38.5746C171.846 39.2181 171.855 39.9854 171.494 40.8765L164.007 60.5412C163.513 61.8376 162.862 62.7162 162.056 63.1772C161.246 63.6413 160.363 63.8703 159.4 63.8703C158.442 63.8703 157.559 63.6413 156.744 63.1772C155.934 62.7162 155.286 61.8376 154.792 60.5412L147.306 40.8765C146.941 39.9854 146.975 39.2181 147.404 38.5746C147.831 37.9311 148.43 37.4794 149.196 37.2133Z" fill="#061BB0"/>
<path d="M179.372 52.2991C177.717 52.2991 176.568 52.6178 175.926 53.252C175.283 53.8801 174.962 54.7216 174.962 55.7766V55.8756C174.962 57.8 176.201 58.7591 178.681 58.7591C180.632 58.7591 182.167 58.4312 183.288 57.7691C184.079 57.2988 184.647 56.7512 184.993 56.1232C185.345 55.4982 185.524 54.6567 185.524 53.5985V52.2991H179.372ZM180.657 36.6069C182.245 36.6069 183.715 36.8111 185.067 37.2133C186.426 37.6093 187.591 38.1786 188.563 38.9211C189.542 39.6637 190.305 40.5764 190.849 41.6561C191.392 42.7297 191.664 43.9642 191.664 45.3564V61.4818C191.664 62.3171 191.374 62.9235 190.799 63.301C190.222 63.6815 189.567 63.8703 188.835 63.8703C188.109 63.8703 187.458 63.6815 186.883 63.301C186.306 62.9235 186.019 62.3171 186.019 61.4818V60.1947H185.969C185.704 60.7578 185.321 61.2559 184.82 61.6922C184.326 62.1222 183.733 62.5182 183.041 62.8802C182.38 63.2113 181.621 63.4742 180.756 63.6722C179.897 63.8703 179.042 63.9693 178.186 63.9693C175.212 63.9693 172.924 63.2948 171.318 61.9397C169.718 60.5784 168.921 58.657 168.921 56.1727V55.3806C168.921 54.2606 169.094 53.2211 169.44 52.262C169.786 51.2967 170.361 50.4613 171.17 49.7497C171.976 49.032 173.029 48.4751 174.332 48.079C175.642 47.683 177.272 47.485 179.224 47.485H185.475V46.792C185.475 45.1027 185.083 43.8837 184.301 43.1412C183.526 42.3987 182.294 42.0274 180.608 42.0274C178.366 42.0274 176.253 42.6214 174.27 43.8095C173.61 44.2055 172.955 44.3138 172.306 44.1312C171.664 43.9518 171.145 43.531 170.75 42.8689C170.385 42.244 170.246 41.5912 170.33 40.9136C170.41 40.2298 170.781 39.6729 171.441 39.2429C172.634 38.4509 174.03 37.8166 175.629 37.3371C177.235 36.8513 178.909 36.6069 180.657 36.6069Z" fill="#061BB0"/>
<path d="M195.78 26.7312C196.602 26.7312 197.327 26.9477 197.954 27.3747C198.578 27.8048 198.893 28.4854 198.893 29.4167V61.1847C198.893 62.1191 198.578 62.7997 197.954 63.2267C197.327 63.6567 196.602 63.8702 195.78 63.8702C194.946 63.8702 194.217 63.6567 193.594 63.2267C192.967 62.7997 192.655 62.1191 192.655 61.1847V29.4167C192.655 28.4854 192.967 27.8048 193.594 27.3747C194.217 26.9477 194.946 26.7312 195.78 26.7312Z" fill="#061BB0"/>
<path d="M203.411 26.7312C204.233 26.7312 204.958 26.9477 205.585 27.3747C206.209 27.8048 206.524 28.4854 206.524 29.4167V61.1847C206.524 62.1191 206.209 62.7997 205.585 63.2267C204.958 63.6567 204.233 63.8702 203.411 63.8702C202.577 63.8702 201.848 63.6567 201.225 63.2267C200.598 62.7997 200.286 62.1191 200.286 61.1847V29.4167C200.286 28.4854 200.598 27.8048 201.225 27.3747C201.848 26.9477 202.577 26.7312 203.411 26.7312Z" fill="#061BB0"/>
<path d="M218.825 41.7799C216.74 41.7799 215.174 42.3244 214.13 43.4135C213.093 44.5025 212.574 45.8948 212.574 47.584V47.9305H224.866V47.4355C224.866 45.8112 224.399 44.4623 223.47 43.3887C222.546 42.3182 220.999 41.7799 218.825 41.7799ZM218.924 36.6069C220.702 36.6069 222.315 36.8761 223.766 37.4113C225.224 37.9404 226.478 38.7046 227.534 39.7008C228.596 40.6908 229.415 41.916 229.992 43.3763C230.567 44.8305 230.857 46.495 230.857 48.3761V48.4751C230.857 50.0344 230.551 51.1111 229.943 51.7051C229.331 52.2991 228.232 52.5961 226.644 52.5961H212.574V52.6951C212.574 54.4865 213.124 55.9468 214.229 57.0761C215.341 58.1992 217.003 58.7591 219.22 58.7591C220.604 58.7591 221.814 58.654 222.852 58.4374C223.896 58.2239 224.964 57.865 226.051 57.3607C226.719 57.0637 227.364 57.0266 227.991 57.2493C228.615 57.4659 229.078 57.9176 229.375 58.6106C229.671 59.3037 229.736 59.972 229.572 60.6155C229.405 61.259 228.995 61.7509 228.337 62.0882C227.077 62.7162 225.699 63.1865 224.211 63.499C222.728 63.8115 220.98 63.9693 218.973 63.9693C215.001 63.9693 211.925 62.8864 209.745 60.7145C207.571 58.5457 206.484 55.294 206.484 50.9625V49.6755C206.484 45.3688 207.586 42.114 209.794 39.9112C212.009 37.7083 215.051 36.6069 218.924 36.6069Z" fill="#061BB0"/>
<path d="M251.083 37.1143C251.84 37.3463 252.424 37.7919 252.838 38.4509C253.248 39.113 253.289 39.871 252.961 40.728L240.571 72.2609C240.24 73.0839 239.712 73.5882 238.989 73.7707C238.264 73.9501 237.501 73.8759 236.704 73.5479C235.913 73.2169 235.37 72.7559 235.073 72.1619C234.777 71.5679 234.777 70.8903 235.073 70.1323L237.754 63.6722L228.724 40.926C228.359 40.0349 228.403 39.2615 228.847 38.5994C229.298 37.9404 229.904 37.4794 230.663 37.2133C231.059 37.0834 231.454 36.9905 231.849 36.941C232.244 36.8854 232.631 36.9163 233.01 37.0401C233.396 37.1576 233.739 37.3556 234.036 37.6341C234.332 37.9156 234.561 38.3024 234.728 38.7974L240.917 56.5687H240.966L247.118 38.7974C247.445 37.8414 248.007 37.2628 248.798 37.0648C249.595 36.8606 250.358 36.8761 251.083 37.1143Z" fill="#061BB0"/>
<path d="M261.837 26.7312C262.658 26.7312 263.384 26.9477 264.011 27.3747C264.635 27.8048 264.95 28.4854 264.95 29.4167V61.1847C264.95 62.1191 264.635 62.7997 264.011 63.2267C263.384 63.6567 262.658 63.8702 261.837 63.8702C261.003 63.8702 260.274 63.6567 259.65 63.2267C259.023 62.7997 258.711 62.1191 258.711 61.1847V29.4167C258.711 28.4854 259.023 27.8048 259.65 27.3747C260.274 26.9477 261.003 26.7312 261.837 26.7312Z" fill="#061BB0"/>
<path d="M275.36 52.2991C273.705 52.2991 272.556 52.6178 271.914 53.252C271.271 53.8801 270.95 54.7216 270.95 55.7766V55.8756C270.95 57.8 272.189 58.7591 274.669 58.7591C276.62 58.7591 278.155 58.4312 279.276 57.7691C280.067 57.2988 280.635 56.7512 280.981 56.1232C281.333 55.4982 281.512 54.6567 281.512 53.5985V52.2991H275.36ZM276.645 36.6069C278.232 36.6069 279.703 36.8111 281.055 37.2133C282.414 37.6093 283.578 38.1786 284.551 38.9211C285.53 39.6637 286.293 40.5764 286.837 41.6561C287.38 42.7297 287.652 43.9642 287.652 45.3564V61.4818C287.652 62.3171 287.362 62.9235 286.787 63.301C286.21 63.6815 285.555 63.8703 284.823 63.8703C284.097 63.8703 283.446 63.6815 282.871 63.301C282.294 62.9235 282.006 62.3171 282.006 61.4818V60.1947H281.957C281.691 60.7578 281.308 61.2559 280.808 61.6922C280.314 62.1222 279.721 62.5182 279.029 62.8802C278.368 63.2113 277.609 63.4742 276.744 63.6722C275.885 63.8703 275.03 63.9693 274.174 63.9693C271.2 63.9693 268.912 63.2948 267.306 61.9397C265.706 60.5784 264.909 58.657 264.909 56.1727V55.3806C264.909 54.2606 265.082 53.2211 265.428 52.262C265.774 51.2967 266.348 50.4613 267.158 49.7497C267.964 49.032 269.017 48.4751 270.32 48.079C271.63 47.683 273.26 47.485 275.212 47.485H281.463V46.792C281.463 45.1027 281.071 43.8837 280.289 43.1412C279.514 42.3987 278.282 42.0274 276.596 42.0274C274.354 42.0274 272.241 42.6214 270.258 43.8095C269.597 44.2055 268.943 44.3138 268.294 44.1312C267.652 43.9518 267.133 43.531 266.738 42.8689C266.373 42.244 266.234 41.5912 266.318 40.9136C266.398 40.2298 266.768 39.6729 267.429 39.2429C268.622 38.4509 270.017 37.8166 271.617 37.3371C273.223 36.8513 274.897 36.6069 276.645 36.6069Z" fill="#061BB0"/>
<path d="M291.768 26.7312C292.59 26.7312 293.315 26.9477 293.942 27.3747C294.566 27.8048 294.881 28.4699 294.881 29.3672V39.8864C295.317 39.2614 295.857 38.7324 296.499 38.3023C297.142 37.8754 297.8 37.535 298.476 37.2875C299.159 37.04 299.838 36.8668 300.514 36.7677C301.188 36.6626 301.805 36.6069 302.367 36.6069C305.975 36.6069 308.649 37.7083 310.397 39.9111C312.151 42.114 313.028 45.3533 313.028 49.6259V50.913C313.028 53.0664 312.76 54.966 312.225 56.6058C311.697 58.2393 310.956 59.6068 310.002 60.7021C309.044 61.7911 307.896 62.6079 306.555 63.1524C305.221 63.697 303.726 63.9692 302.071 63.9692C300.249 63.9692 298.729 63.6413 297.512 62.9792C296.293 62.3202 295.366 61.457 294.733 60.3927H294.585V61.3332C294.585 62.1995 294.279 62.84 293.671 63.2514C293.059 63.666 292.377 63.8702 291.62 63.8702C290.854 63.8702 290.165 63.666 289.557 63.2514C288.945 62.84 288.643 62.1995 288.643 61.3332V29.3672C288.643 28.4699 288.964 27.8048 289.606 27.3747C290.249 26.9477 290.968 26.7312 291.768 26.7312ZM301.132 41.9779C299.047 41.9779 297.466 42.5843 296.388 43.7971C295.317 45.0037 294.782 46.5444 294.782 48.4255V53.0416C294.782 53.7439 294.946 54.4246 295.276 55.0836C295.613 55.7457 296.061 56.3428 296.623 56.878C297.182 57.4071 297.858 57.8371 298.649 58.1651C299.446 58.4961 300.323 58.6601 301.28 58.6601C304.977 58.6601 306.827 56.0303 306.827 50.7645V49.7745C306.827 47.1942 306.398 45.2512 305.542 43.9456C304.684 42.6338 303.214 41.9779 301.132 41.9779Z" fill="#061BB0"/>
<path d="M322.24 36.6069C325.508 36.6069 328.086 37.1236 329.973 38.1538C330.795 38.6179 331.308 39.1625 331.505 39.7874C331.703 40.4155 331.619 41.1116 331.258 41.8789C330.962 42.5069 330.532 42.9277 329.973 43.1412C329.411 43.3578 328.769 43.299 328.046 42.9679C327.28 42.606 326.443 42.3244 325.539 42.1264C324.631 41.9284 323.763 41.8294 322.932 41.8294C321.054 41.8294 319.748 42.0614 319.016 42.5224C318.29 42.9865 317.929 43.531 317.929 44.156V44.255C317.929 44.651 317.978 44.9944 318.077 45.2822C318.176 45.5637 318.398 45.8112 318.744 46.0247C319.09 46.2413 319.59 46.4393 320.251 46.6187C320.918 46.8013 321.826 47.0086 322.981 47.2375C324.964 47.6335 326.601 48.0729 327.886 48.5493C329.177 49.0289 330.202 49.6012 330.962 50.2695C331.728 50.9316 332.259 51.7175 332.555 52.6332C332.852 53.5429 333 54.6226 333 55.8756V56.0737C333 57.206 332.741 58.2487 332.222 59.2047C331.709 60.1638 330.986 60.9991 330.048 61.7169C329.109 62.4285 327.966 62.9792 326.626 63.3752C325.291 63.7712 323.797 63.9693 322.141 63.9693C320.189 63.9693 318.386 63.7712 316.731 63.3752C315.081 62.9792 313.633 62.4347 312.382 61.7417C311.69 61.3704 311.273 60.8321 311.134 60.1205C311.002 59.412 311.104 58.7282 311.443 58.0661C311.805 57.3669 312.299 56.8997 312.926 56.6677C313.55 56.4387 314.226 56.5037 314.952 56.8657C316.014 57.435 317.163 57.8867 318.398 58.2146C319.64 58.5457 320.872 58.7096 322.092 58.7096C323.812 58.7096 325.001 58.4621 325.662 57.9671C326.32 57.4659 326.65 56.8347 326.65 56.0737V55.9746C326.65 55.5786 326.601 55.2321 326.502 54.9351C326.403 54.6381 326.156 54.3751 325.761 54.1431C325.366 53.9141 324.785 53.6975 324.019 53.4995C323.259 53.2953 322.24 53.0602 320.955 52.7941C319.201 52.4662 317.734 52.0702 316.558 51.6061C315.387 51.1451 314.439 50.5758 313.716 49.8983C312.991 49.2145 312.472 48.4194 312.16 47.5098C311.845 46.6033 311.69 45.5513 311.69 44.354V44.156C311.69 43.1659 311.903 42.2192 312.333 41.3096C312.759 40.3938 313.411 39.5894 314.285 38.8964C315.165 38.2033 316.264 37.6526 317.583 37.2381C318.899 36.8173 320.452 36.6069 322.24 36.6069Z" fill="#061BB0"/>
<path d="M154.53 86.3115L156.877 81.7944H158.224L155.123 87.4377V90.8038H153.937V87.4377L150.836 81.7944H152.195L154.53 86.3115Z" fill="#76B9F0"/>
<path d="M168.084 86.5837C168.084 87.4686 167.936 88.239 167.64 88.898C167.343 89.5601 166.923 90.0613 166.38 90.4078C165.836 90.7543 165.2 90.9276 164.477 90.9276C163.767 90.9276 163.137 90.7543 162.587 90.4078C162.043 90.0551 161.617 89.5539 161.315 88.9104C161.009 88.2668 160.851 87.5212 160.845 86.6704V86.0145C160.845 85.1482 160.993 84.3871 161.29 83.725C161.593 83.0567 162.022 82.5493 162.575 82.2028C163.124 81.8501 163.754 81.6707 164.465 81.6707C165.181 81.6707 165.814 81.8439 166.367 82.1904C166.917 82.5369 167.343 83.0443 167.64 83.7126C167.936 84.3747 168.084 85.142 168.084 86.0145V86.5837ZM166.898 86.0021C166.898 84.9378 166.682 84.121 166.256 83.5517C165.827 82.9763 165.231 82.6854 164.465 82.6854C163.714 82.6854 163.121 82.9763 162.686 83.5517C162.257 84.121 162.037 84.913 162.031 85.9278V86.5837C162.031 87.6233 162.244 88.4401 162.674 89.0341C163.109 89.6219 163.711 89.9128 164.477 89.9128C165.243 89.9128 165.836 89.6374 166.256 89.0836C166.676 88.5236 166.889 87.7192 166.898 86.6704V86.0021Z" fill="#76B9F0"/>
<path d="M177.97 81.7944V87.9203C177.97 88.7711 177.701 89.4672 177.167 90.0118C176.639 90.5501 175.922 90.8471 175.017 90.9152L174.708 90.9276C173.72 90.9276 172.933 90.6646 172.349 90.1355C171.762 89.6003 171.466 88.867 171.459 87.9327V81.7944H172.633V87.8956C172.633 88.5484 172.809 89.0558 173.164 89.4177C173.526 89.7735 174.041 89.9499 174.708 89.9499C175.376 89.9499 175.885 89.7735 176.24 89.4177C176.602 89.0558 176.784 88.5484 176.784 87.8956V81.7944H177.97Z" fill="#76B9F0"/>
<path d="M184.927 87.153H182.815V90.8038H181.617V81.7944H184.594C185.607 81.7944 186.385 82.0264 186.929 82.4874C187.478 82.9515 187.756 83.6229 187.756 84.5047C187.756 85.0677 187.602 85.5566 187.299 85.9773C186.994 86.3919 186.574 86.7013 186.039 86.9055L188.152 90.7296V90.8038H186.879L184.927 87.153ZM182.815 86.1877H184.631C185.224 86.1877 185.693 86.0361 186.039 85.7298C186.385 85.4266 186.558 85.0182 186.558 84.5047C186.558 83.9447 186.391 83.5146 186.064 83.2176C185.733 82.9206 185.255 82.7721 184.631 82.7721H182.815V86.1877Z" fill="#76B9F0"/>
<path d="M199.091 89.2197L201.661 81.7944H202.958L199.623 90.8038H198.572L195.237 81.7944H196.534L199.091 89.2197Z" fill="#76B9F0"/>
<path d="M207.216 90.8038H206.031V81.7944H207.216V90.8038Z" fill="#76B9F0"/>
<path d="M213.811 86.7818C212.798 86.494 212.057 86.1351 211.587 85.7051C211.124 85.2781 210.896 84.7491 210.896 84.121C210.896 83.4125 211.18 82.8278 211.748 82.3637C212.316 81.9027 213.051 81.6707 213.959 81.6707C214.577 81.6707 215.124 81.7913 215.602 82.0295C216.087 82.2709 216.461 82.5988 216.726 83.0196C216.998 83.4404 217.134 83.8983 217.134 84.3933H215.936C215.936 83.8488 215.763 83.4249 215.417 83.1186C215.071 82.8061 214.583 82.6483 213.959 82.6483C213.372 82.6483 212.915 82.7783 212.588 83.032C212.258 83.2888 212.094 83.6476 212.094 84.1086C212.094 84.4737 212.248 84.7831 212.563 85.0368C212.875 85.2936 213.403 85.5287 214.145 85.7422C214.892 85.9495 215.479 86.1815 215.899 86.4352C216.325 86.6828 216.64 86.9767 216.838 87.3139C217.041 87.6542 217.146 88.0533 217.146 88.5143C217.146 89.2414 216.862 89.8261 216.294 90.2717C215.726 90.711 214.966 90.9276 214.021 90.9276C213.403 90.9276 212.826 90.8069 212.292 90.5687C211.754 90.3304 211.34 90.0056 211.044 89.591C210.754 89.1795 210.611 88.7123 210.611 88.1926H211.81C211.81 88.7371 212.007 89.1671 212.403 89.4796C212.804 89.7952 213.345 89.9499 214.021 89.9499C214.645 89.9499 215.124 89.8231 215.454 89.5663C215.791 89.3126 215.96 88.966 215.96 88.5267C215.96 88.0812 215.803 87.7409 215.491 87.4995C215.185 87.2613 214.626 87.0231 213.811 86.7818Z" fill="#76B9F0"/>
<path d="M221.726 90.8038H220.54V81.7944H221.726V90.8038Z" fill="#76B9F0"/>
<path d="M232.595 86.5837C232.595 87.4686 232.447 88.239 232.15 88.898C231.854 89.5601 231.434 90.0613 230.89 90.4078C230.347 90.7543 229.71 90.9276 228.988 90.9276C228.277 90.9276 227.647 90.7543 227.098 90.4078C226.554 90.0551 226.128 89.5539 225.825 88.9104C225.52 88.2668 225.362 87.5212 225.356 86.6704V86.0145C225.356 85.1482 225.504 84.3871 225.801 83.725C226.103 83.0567 226.532 82.5493 227.085 82.2028C227.635 81.8501 228.265 81.6707 228.975 81.6707C229.692 81.6707 230.325 81.8439 230.878 82.1904C231.428 82.5369 231.854 83.0443 232.15 83.7126C232.447 84.3747 232.595 85.142 232.595 86.0145V86.5837ZM231.409 86.0021C231.409 84.9378 231.193 84.121 230.767 83.5517C230.337 82.9763 229.741 82.6854 228.975 82.6854C228.225 82.6854 227.632 82.9763 227.196 83.5517C226.767 84.121 226.548 84.913 226.542 85.9278V86.5837C226.542 87.6233 226.755 88.4401 227.184 89.0341C227.62 89.6219 228.222 89.9128 228.988 89.9128C229.754 89.9128 230.347 89.6374 230.767 89.0836C231.187 88.5236 231.4 87.7192 231.409 86.6704V86.0021Z" fill="#76B9F0"/>
<path d="M243.061 90.8038H241.875L237.341 83.8611V90.8038H236.155V81.7944H237.341L241.887 88.7618V81.7944H243.061V90.8038Z" fill="#76B9F0"/>
<path d="M246.732 92.5982L246.09 92.1527C246.476 91.6144 246.677 91.0575 246.695 90.482V89.4425H247.807V90.3459C247.807 90.7667 247.702 91.1812 247.498 91.5958C247.301 92.0166 247.044 92.3507 246.732 92.5982Z" fill="#76B9F0"/>
<path d="M263.053 86.5837C263.053 87.4686 262.905 88.239 262.609 88.898C262.312 89.5601 261.892 90.0613 261.349 90.4078C260.805 90.7543 260.169 90.9276 259.446 90.9276C258.736 90.9276 258.106 90.7543 257.556 90.4078C257.012 90.0551 256.586 89.5539 256.284 88.9104C255.978 88.2668 255.82 87.5212 255.814 86.6704V86.0145C255.814 85.1482 255.962 84.3871 256.259 83.725C256.562 83.0567 256.991 82.5493 257.544 82.2028C258.093 81.8501 258.723 81.6707 259.434 81.6707C260.15 81.6707 260.783 81.8439 261.336 82.1904C261.886 82.5369 262.312 83.0443 262.609 83.7126C262.905 84.3747 263.053 85.142 263.053 86.0145V86.5837ZM261.867 86.0021C261.867 84.9378 261.651 84.121 261.225 83.5517C260.796 82.9763 260.2 82.6854 259.434 82.6854C258.683 82.6854 258.09 82.9763 257.655 83.5517C257.226 84.121 257.006 84.913 257 85.9278V86.5837C257 87.6233 257.213 88.4401 257.643 89.0341C258.078 89.6219 258.68 89.9128 259.446 89.9128C260.212 89.9128 260.805 89.6374 261.225 89.0836C261.645 88.5236 261.858 87.7192 261.867 86.6704V86.0021Z" fill="#76B9F0"/>
<path d="M272.939 81.7944V87.9203C272.939 88.7711 272.67 89.4672 272.136 90.0118C271.608 90.5501 270.891 90.8471 269.986 90.9152L269.677 90.9276C268.689 90.9276 267.902 90.6646 267.318 90.1355C266.731 89.6003 266.435 88.867 266.428 87.9327V81.7944H267.602V87.8956C267.602 88.5484 267.778 89.0558 268.133 89.4177C268.495 89.7735 269.01 89.9499 269.677 89.9499C270.345 89.9499 270.854 89.7735 271.209 89.4177C271.571 89.0558 271.753 88.5484 271.753 87.8956V81.7944H272.939Z" fill="#76B9F0"/>
<path d="M279.896 87.153H277.784V90.8038H276.586V81.7944H279.563C280.576 81.7944 281.354 82.0264 281.898 82.4874C282.447 82.9515 282.725 83.6229 282.725 84.5047C282.725 85.0677 282.571 85.5566 282.268 85.9773C281.962 86.3919 281.542 86.7013 281.008 86.9055L283.121 90.7296V90.8038H281.848L279.896 87.153ZM277.784 86.1877H279.6C280.193 86.1877 280.662 86.0361 281.008 85.7298C281.354 85.4266 281.527 85.0182 281.527 84.5047C281.527 83.9447 281.36 83.5146 281.033 83.2176C280.702 82.9206 280.224 82.7721 279.6 82.7721H277.784V86.1877Z" fill="#76B9F0"/>
<path d="M297.692 87.9451C297.584 88.8949 297.235 89.6281 296.642 90.1479C296.049 90.6677 295.262 90.9276 294.283 90.9276C293.22 90.9276 292.368 90.5501 291.725 89.789C291.089 89.0217 290.774 88.0008 290.774 86.7199V85.8536C290.774 85.0121 290.922 84.2757 291.219 83.6384C291.515 83.0041 291.935 82.5184 292.479 82.1781C293.029 81.8408 293.668 81.6707 294.394 81.6707C295.348 81.6707 296.114 81.9398 296.691 82.4751C297.266 83.0041 297.599 83.7436 297.692 84.6903H296.506C296.398 83.9725 296.173 83.4527 295.827 83.131C295.487 82.8092 295.011 82.6483 294.394 82.6483C293.634 82.6483 293.038 82.9299 292.602 83.4899C292.173 84.0529 291.96 84.8481 291.96 85.8783V86.757C291.96 87.7316 292.161 88.5081 292.565 89.0836C292.976 89.6622 293.548 89.9499 294.283 89.9499C294.94 89.9499 295.447 89.8014 295.802 89.5044C296.154 89.2074 296.389 88.6876 296.506 87.9451H297.692Z" fill="#76B9F0"/>
<path d="M308.016 86.5837C308.016 87.4686 307.868 88.239 307.571 88.898C307.275 89.5601 306.855 90.0613 306.311 90.4078C305.768 90.7543 305.132 90.9276 304.409 90.9276C303.699 90.9276 303.069 90.7543 302.519 90.4078C301.975 90.0551 301.549 89.5539 301.246 88.9104C300.941 88.2668 300.783 87.5212 300.777 86.6704V86.0145C300.777 85.1482 300.925 84.3871 301.222 83.725C301.524 83.0567 301.954 82.5493 302.506 82.2028C303.056 81.8501 303.686 81.6707 304.397 81.6707C305.113 81.6707 305.746 81.8439 306.299 82.1904C306.849 82.5369 307.275 83.0443 307.571 83.7126C307.868 84.3747 308.016 85.142 308.016 86.0145V86.5837ZM306.83 86.0021C306.83 84.9378 306.614 84.121 306.188 83.5517C305.758 82.9763 305.162 82.6854 304.397 82.6854C303.646 82.6854 303.053 82.9763 302.618 83.5517C302.188 84.121 301.969 84.913 301.963 85.9278V86.5837C301.963 87.6233 302.176 88.4401 302.605 89.0341C303.041 89.6219 303.643 89.9128 304.409 89.9128C305.175 89.9128 305.768 89.6374 306.188 89.0836C306.608 88.5236 306.821 87.7192 306.83 86.6704V86.0021Z" fill="#76B9F0"/>
<path d="M311.577 90.8038V81.7944H314.109C314.89 81.7944 315.582 81.9677 316.184 82.3142C316.784 82.6607 317.25 83.1557 317.58 83.7992C317.908 84.4366 318.075 85.1667 318.075 85.9897V86.5714C318.075 87.4222 317.908 88.1678 317.58 88.8113C317.259 89.4487 316.793 89.9375 316.184 90.284C315.573 90.6244 314.866 90.7976 314.06 90.8038H311.577ZM312.763 82.7721V89.8261H314.01C314.924 89.8261 315.632 89.5415 316.135 88.9722C316.645 88.403 316.901 87.5954 316.901 86.5466V86.0145C316.901 84.9935 316.66 84.2014 316.184 83.6384C315.706 83.0691 315.026 82.7814 314.146 82.7721H312.763Z" fill="#76B9F0"/>
<path d="M326.731 86.6332H322.839V89.8261H327.361V90.8038H321.654V81.7944H327.299V82.7721H322.839V85.668H326.731V86.6332Z" fill="#76B9F0"/>
<path d="M330.464 90.1975C330.464 89.9994 330.52 89.8355 330.637 89.7024C330.761 89.5725 330.937 89.5044 331.169 89.5044C331.406 89.5044 331.582 89.5725 331.7 89.7024C331.823 89.8355 331.885 89.9994 331.885 90.1975C331.885 90.3893 331.823 90.5502 331.7 90.6801C331.582 90.81 331.406 90.8781 331.169 90.8781C330.937 90.8781 330.761 90.81 330.637 90.6801C330.52 90.5502 330.464 90.3893 330.464 90.1975Z" fill="#76B9F0"/>
</svg>
